<mxfile host="65bd71144e">
    <diagram id="Dnd1jAsOH9fZzJqDgail" name="構成図">
        <mxGraphModel dx="1200" dy="786" grid="1" gridSize="10" guides="1" tooltips="1" connect="1" arrows="1" fold="1" page="1" pageScale="1" pageWidth="827" pageHeight="1169" background="#ffffff" math="0" shadow="0">
            <root>
                <mxCell id="0"/>
                <mxCell id="1" parent="0"/>
                <mxCell id="CThOfPx-exDyMWdyFiYV-11" value="" style="rounded=1;whiteSpace=wrap;html=1;" parent="1" vertex="1">
                    <mxGeometry x="257" y="390" width="170" height="310" as="geometry"/>
                </mxCell>
                <mxCell id="14U-jARELaDvpxEJPmEb-2" value="ap-northeast-1c" style="fillColor=none;strokeColor=#147EBA;dashed=1;verticalAlign=top;fontStyle=0;fontColor=#147EBA;whiteSpace=wrap;html=1;" parent="1" vertex="1">
                    <mxGeometry x="1043" y="310" width="280" height="420" as="geometry"/>
                </mxCell>
                <mxCell id="14U-jARELaDvpxEJPmEb-3" value="ap-northeast-1a" style="fillColor=none;strokeColor=#147EBA;dashed=1;verticalAlign=top;fontStyle=0;fontColor=#147EBA;whiteSpace=wrap;html=1;" parent="1" vertex="1">
                    <mxGeometry x="723" y="310" width="280" height="420" as="geometry"/>
                </mxCell>
                <mxCell id="14U-jARELaDvpxEJPmEb-7" value="&lt;font style=&quot;color: rgb(140, 79, 255);&quot;&gt;vpc(10.0.0.0/16)&lt;/font&gt;" style="points=[[0,0],[0.25,0],[0.5,0],[0.75,0],[1,0],[1,0.25],[1,0.5],[1,0.75],[1,1],[0.75,1],[0.5,1],[0.25,1],[0,1],[0,0.75],[0,0.5],[0,0.25]];outlineConnect=0;gradientColor=none;html=1;whiteSpace=wrap;fontSize=12;fontStyle=0;container=1;pointerEvents=0;collapsible=0;recursiveResize=0;shape=mxgraph.aws4.group;grIcon=mxgraph.aws4.group_vpc2;strokeColor=#8C4FFF;fillColor=none;verticalAlign=top;align=left;spacingLeft=30;fontColor=#AAB7B8;dashed=0;" parent="1" vertex="1">
                    <mxGeometry x="703" y="250" width="640" height="500" as="geometry"/>
                </mxCell>
                <mxCell id="14U-jARELaDvpxEJPmEb-8" value="IGW&lt;div&gt;&lt;br&gt;&lt;/div&gt;" style="outlineConnect=0;fontColor=#232F3E;gradientColor=none;fillColor=#8C4FFF;strokeColor=none;dashed=0;verticalLabelPosition=bottom;verticalAlign=top;align=center;html=1;fontSize=12;fontStyle=0;aspect=fixed;pointerEvents=1;shape=mxgraph.aws4.internet_gateway;" parent="14U-jARELaDvpxEJPmEb-7" vertex="1">
                    <mxGeometry x="281" y="-40" width="78" height="78" as="geometry"/>
                </mxCell>
                <mxCell id="14U-jARELaDvpxEJPmEb-9" value="ALB" style="outlineConnect=0;fontColor=#232F3E;gradientColor=none;fillColor=#8C4FFF;strokeColor=none;dashed=0;verticalLabelPosition=bottom;verticalAlign=top;align=center;html=1;fontSize=12;fontStyle=0;aspect=fixed;pointerEvents=1;shape=mxgraph.aws4.application_load_balancer;" parent="14U-jARELaDvpxEJPmEb-7" vertex="1">
                    <mxGeometry x="280" y="150" width="78" height="78" as="geometry"/>
                </mxCell>
                <mxCell id="14U-jARELaDvpxEJPmEb-10" style="edgeStyle=none;html=1;" parent="14U-jARELaDvpxEJPmEb-7" source="14U-jARELaDvpxEJPmEb-9" target="14U-jARELaDvpxEJPmEb-8" edge="1">
                    <mxGeometry relative="1" as="geometry"/>
                </mxCell>
                <mxCell id="14U-jARELaDvpxEJPmEb-11" value="&lt;font style=&quot;color: rgb(77, 153, 0);&quot;&gt;public-subnet-1a&lt;/font&gt;&lt;div&gt;&lt;span style=&quot;background-color: transparent;&quot;&gt;&lt;font style=&quot;color: rgb(77, 153, 0);&quot;&gt;(10.0.1.0/24)&lt;/font&gt;&lt;/span&gt;&lt;/div&gt;" style="points=[[0,0],[0.25,0],[0.5,0],[0.75,0],[1,0],[1,0.25],[1,0.5],[1,0.75],[1,1],[0.75,1],[0.5,1],[0.25,1],[0,1],[0,0.75],[0,0.5],[0,0.25]];outlineConnect=0;gradientColor=none;html=1;whiteSpace=wrap;fontSize=12;fontStyle=0;container=1;pointerEvents=0;collapsible=0;recursiveResize=0;shape=mxgraph.aws4.group;grIcon=mxgraph.aws4.group_security_group;grStroke=0;strokeColor=#7AA116;fillColor=#F2F6E8;verticalAlign=top;align=left;spacingLeft=30;fontColor=#248814;dashed=0;" parent="1" vertex="1">
                    <mxGeometry x="743" y="350" width="240" height="160" as="geometry"/>
                </mxCell>
                <mxCell id="14U-jARELaDvpxEJPmEb-13" value="" style="edgeStyle=none;html=1;" parent="1" source="14U-jARELaDvpxEJPmEb-9" target="14U-jARELaDvpxEJPmEb-12" edge="1">
                    <mxGeometry relative="1" as="geometry"/>
                </mxCell>
                <mxCell id="14U-jARELaDvpxEJPmEb-14" value="&lt;font style=&quot;color: rgb(0, 153, 153);&quot;&gt;private-subnet-1a&lt;/font&gt;&lt;div&gt;&lt;font style=&quot;color: rgb(0, 153, 153);&quot;&gt;(10.0.3.0/24)&lt;/font&gt;&lt;/div&gt;" style="points=[[0,0],[0.25,0],[0.5,0],[0.75,0],[1,0],[1,0.25],[1,0.5],[1,0.75],[1,1],[0.75,1],[0.5,1],[0.25,1],[0,1],[0,0.75],[0,0.5],[0,0.25]];outlineConnect=0;gradientColor=none;html=1;whiteSpace=wrap;fontSize=12;fontStyle=0;container=1;pointerEvents=0;collapsible=0;recursiveResize=0;shape=mxgraph.aws4.group;grIcon=mxgraph.aws4.group_security_group;grStroke=0;strokeColor=#00A4A6;fillColor=#E6F6F7;verticalAlign=top;align=left;spacingLeft=30;fontColor=#147EBA;dashed=0;" parent="1" vertex="1">
                    <mxGeometry x="743" y="550" width="240" height="160" as="geometry"/>
                </mxCell>
                <mxCell id="14U-jARELaDvpxEJPmEb-15" value="RDS" style="points=[[0,0,0],[0.25,0,0],[0.5,0,0],[0.75,0,0],[1,0,0],[0,1,0],[0.25,1,0],[0.5,1,0],[0.75,1,0],[1,1,0],[0,0.25,0],[0,0.5,0],[0,0.75,0],[1,0.25,0],[1,0.5,0],[1,0.75,0]];outlineConnect=0;fontColor=#232F3E;fillColor=#C925D1;strokeColor=#ffffff;dashed=0;verticalLabelPosition=bottom;verticalAlign=top;align=center;html=1;fontSize=12;fontStyle=0;aspect=fixed;shape=mxgraph.aws4.resourceIcon;resIcon=mxgraph.aws4.rds;" parent="14U-jARELaDvpxEJPmEb-14" vertex="1">
                    <mxGeometry x="81" y="51" width="78" height="78" as="geometry"/>
                </mxCell>
                <mxCell id="14U-jARELaDvpxEJPmEb-16" value="&lt;font style=&quot;color: rgb(77, 153, 0);&quot;&gt;public-subnet-1c&lt;/font&gt;&lt;div&gt;&lt;font style=&quot;color: rgb(77, 153, 0);&quot;&gt;(10.0.2.0/24)&lt;/font&gt;&lt;/div&gt;" style="points=[[0,0],[0.25,0],[0.5,0],[0.75,0],[1,0],[1,0.25],[1,0.5],[1,0.75],[1,1],[0.75,1],[0.5,1],[0.25,1],[0,1],[0,0.75],[0,0.5],[0,0.25]];outlineConnect=0;gradientColor=none;html=1;whiteSpace=wrap;fontSize=12;fontStyle=0;container=1;pointerEvents=0;collapsible=0;recursiveResize=0;shape=mxgraph.aws4.group;grIcon=mxgraph.aws4.group_security_group;grStroke=0;strokeColor=#7AA116;fillColor=#F2F6E8;verticalAlign=top;align=left;spacingLeft=30;fontColor=#248814;dashed=0;" parent="1" vertex="1">
                    <mxGeometry x="1063" y="350" width="240" height="160" as="geometry"/>
                </mxCell>
                <mxCell id="14U-jARELaDvpxEJPmEb-17" value="&lt;font style=&quot;color: rgb(0, 153, 153);&quot;&gt;private-subnet-1c&lt;/font&gt;&lt;div&gt;&lt;font style=&quot;color: rgb(0, 153, 153);&quot;&gt;(10.0.4.0/24)&lt;/font&gt;&lt;/div&gt;" style="points=[[0,0],[0.25,0],[0.5,0],[0.75,0],[1,0],[1,0.25],[1,0.5],[1,0.75],[1,1],[0.75,1],[0.5,1],[0.25,1],[0,1],[0,0.75],[0,0.5],[0,0.25]];outlineConnect=0;gradientColor=none;html=1;whiteSpace=wrap;fontSize=12;fontStyle=0;container=1;pointerEvents=0;collapsible=0;recursiveResize=0;shape=mxgraph.aws4.group;grIcon=mxgraph.aws4.group_security_group;grStroke=0;strokeColor=#00A4A6;fillColor=#E6F6F7;verticalAlign=top;align=left;spacingLeft=30;fontColor=#147EBA;dashed=0;" parent="1" vertex="1">
                    <mxGeometry x="1063" y="550" width="240" height="160" as="geometry"/>
                </mxCell>
                <mxCell id="14U-jARELaDvpxEJPmEb-18" style="edgeStyle=none;html=1;" parent="1" source="14U-jARELaDvpxEJPmEb-20" target="14U-jARELaDvpxEJPmEb-22" edge="1">
                    <mxGeometry relative="1" as="geometry"/>
                </mxCell>
                <mxCell id="14U-jARELaDvpxEJPmEb-19" style="edgeStyle=none;html=1;" parent="1" source="14U-jARELaDvpxEJPmEb-20" target="14U-jARELaDvpxEJPmEb-8" edge="1">
                    <mxGeometry relative="1" as="geometry"/>
                </mxCell>
                <mxCell id="14U-jARELaDvpxEJPmEb-20" value="Internet" style="outlineConnect=0;fontColor=#232F3E;gradientColor=none;fillColor=#232F3D;strokeColor=none;dashed=0;verticalLabelPosition=bottom;verticalAlign=top;align=center;html=1;fontSize=12;fontStyle=0;aspect=fixed;pointerEvents=1;shape=mxgraph.aws4.internet_alt22;" parent="1" vertex="1">
                    <mxGeometry x="984" y="40" width="78" height="78" as="geometry"/>
                </mxCell>
                <mxCell id="14U-jARELaDvpxEJPmEb-21" style="edgeStyle=none;html=1;strokeColor=default;" parent="1" source="14U-jARELaDvpxEJPmEb-22" target="14U-jARELaDvpxEJPmEb-20" edge="1">
                    <mxGeometry relative="1" as="geometry"/>
                </mxCell>
                <mxCell id="14U-jARELaDvpxEJPmEb-22" value="Users" style="outlineConnect=0;fontColor=#232F3E;gradientColor=none;fillColor=#232F3D;strokeColor=none;dashed=0;verticalLabelPosition=bottom;verticalAlign=top;align=center;html=1;fontSize=12;fontStyle=0;aspect=fixed;pointerEvents=1;shape=mxgraph.aws4.users;" parent="1" vertex="1">
                    <mxGeometry x="1225" y="40" width="78" height="78" as="geometry"/>
                </mxCell>
                <mxCell id="14U-jARELaDvpxEJPmEb-23" style="edgeStyle=none;html=1;" parent="1" source="14U-jARELaDvpxEJPmEb-12" target="14U-jARELaDvpxEJPmEb-15" edge="1">
                    <mxGeometry relative="1" as="geometry"/>
                </mxCell>
                <mxCell id="14U-jARELaDvpxEJPmEb-24" style="edgeStyle=none;html=1;" parent="1" source="14U-jARELaDvpxEJPmEb-6" target="14U-jARELaDvpxEJPmEb-9" edge="1">
                    <mxGeometry relative="1" as="geometry"/>
                </mxCell>
                <mxCell id="K-y_hoBacwOpLhWbvUWJ-4" value="Email" style="verticalLabelPosition=bottom;shadow=0;dashed=0;align=center;html=1;verticalAlign=top;strokeWidth=1;shape=mxgraph.mockup.misc.mail2;strokeColor=#999999;" parent="1" vertex="1">
                    <mxGeometry x="292" y="780" width="100" height="60" as="geometry"/>
                </mxCell>
                <mxCell id="K-y_hoBacwOpLhWbvUWJ-8" style="edgeStyle=none;html=1;" parent="1" source="K-y_hoBacwOpLhWbvUWJ-3" target="K-y_hoBacwOpLhWbvUWJ-4" edge="1">
                    <mxGeometry relative="1" as="geometry"/>
                </mxCell>
                <mxCell id="2xmZp3y6_LLRDK8FWBrn-1" value="alert" style="edgeLabel;html=1;align=center;verticalAlign=middle;resizable=0;points=[];" vertex="1" connectable="0" parent="K-y_hoBacwOpLhWbvUWJ-8">
                    <mxGeometry x="0.3636" y="1" relative="1" as="geometry">
                        <mxPoint as="offset"/>
                    </mxGeometry>
                </mxCell>
                <mxCell id="CThOfPx-exDyMWdyFiYV-6" style="edgeStyle=none;html=1;" parent="1" source="K-y_hoBacwOpLhWbvUWJ-9" target="K-y_hoBacwOpLhWbvUWJ-11" edge="1">
                    <mxGeometry relative="1" as="geometry"/>
                </mxCell>
                <mxCell id="CThOfPx-exDyMWdyFiYV-7" value="Pull Request,Merge" style="edgeLabel;html=1;align=center;verticalAlign=middle;resizable=0;points=[];" parent="CThOfPx-exDyMWdyFiYV-6" vertex="1" connectable="0">
                    <mxGeometry x="-0.1774" y="1" relative="1" as="geometry">
                        <mxPoint as="offset"/>
                    </mxGeometry>
                </mxCell>
                <mxCell id="K-y_hoBacwOpLhWbvUWJ-9" value="Administrator" style="sketch=0;outlineConnect=0;fontColor=#232F3E;gradientColor=none;fillColor=#232F3D;strokeColor=none;dashed=0;verticalLabelPosition=bottom;verticalAlign=top;align=center;html=1;fontSize=12;fontStyle=0;aspect=fixed;pointerEvents=1;shape=mxgraph.aws4.user;" parent="1" vertex="1">
                    <mxGeometry x="80" y="40" width="78" height="78" as="geometry"/>
                </mxCell>
                <mxCell id="CThOfPx-exDyMWdyFiYV-8" style="edgeStyle=none;html=1;entryX=0.5;entryY=0;entryDx=0;entryDy=0;" parent="1" source="K-y_hoBacwOpLhWbvUWJ-11" target="CThOfPx-exDyMWdyFiYV-1" edge="1">
                    <mxGeometry relative="1" as="geometry"/>
                </mxCell>
                <mxCell id="CThOfPx-exDyMWdyFiYV-9" value="Trigger" style="edgeLabel;html=1;align=center;verticalAlign=middle;resizable=0;points=[];" parent="CThOfPx-exDyMWdyFiYV-8" vertex="1" connectable="0">
                    <mxGeometry x="-0.1475" y="1" relative="1" as="geometry">
                        <mxPoint as="offset"/>
                    </mxGeometry>
                </mxCell>
                <mxCell id="K-y_hoBacwOpLhWbvUWJ-11" value="GitHub" style="dashed=0;outlineConnect=0;html=1;align=center;labelPosition=center;verticalLabelPosition=bottom;verticalAlign=top;shape=mxgraph.weblogos.github" parent="1" vertex="1">
                    <mxGeometry x="304.5" y="43" width="75" height="75" as="geometry"/>
                </mxCell>
                <mxCell id="CThOfPx-exDyMWdyFiYV-15" style="edgeStyle=none;html=1;" parent="1" source="CThOfPx-exDyMWdyFiYV-2" target="14U-jARELaDvpxEJPmEb-12" edge="1">
                    <mxGeometry relative="1" as="geometry"/>
                </mxCell>
                <mxCell id="CThOfPx-exDyMWdyFiYV-16" value="Set up" style="edgeLabel;html=1;align=center;verticalAlign=middle;resizable=0;points=[];" parent="CThOfPx-exDyMWdyFiYV-15" vertex="1" connectable="0">
                    <mxGeometry x="-0.2589" y="4" relative="1" as="geometry">
                        <mxPoint as="offset"/>
                    </mxGeometry>
                </mxCell>
                <mxCell id="CThOfPx-exDyMWdyFiYV-2" value="Ansible" style="shape=image;verticalLabelPosition=bottom;labelBackgroundColor=default;verticalAlign=top;aspect=fixed;imageAspect=0;image=data:image/png,iVBORw0KGgoAAAANSUhEUgAAA4QAAAOECAYAAAD5Tv87AABx40lEQVR42uzdB5RV9b0v8KdJzFrv3iT3JlGjIDCAVJUiFqwgKvaGvWKPBXtv2EWwG3tDCfaOgmLsitg1ioIFARWpijB0mP32nkxeFGGYM3POzDn//+e71me9dd9a792w/7+9z/+bc+a//0+SJP8HAACA+LgIAAAACiEAAAAKIQAAAAohAAAACiEAAAAKIQAAAAohAAAACiEAAAAKIQAAAAohAAAACiEAAAAKIQAAAAohAAAACiEAAAAKIQAAAAohAAAACiEAAAAKIQAAAAohAAAACiEAAAAKIQAAAAohAAAACiEAAAAKIQAAgEIIAACAQggAAIBCCAAAgEIIAACAQggAAIBCCAAAgEIIAACAQggAAIBCCAAAgEIIAACAQggAAIBCuJT/QCIiEm1WXr3piqk/ppqn1k31SPVKHZo6OXV+6srU9amBqftTj6deSL2W+iA1JjUuNTE1YwlzU0kNzF3K/9uJVf//jqn63/Na1f/ex6v+cwys+s91ZdV/zlOq/nP3qvp3rFv178r+fStabRGReKMQKoQiIrEUvN+kVk91Tm2TOih1WmpAanDq2dT7qfGpmTUsa6HI/r0Tqv79z1ZdjwFV1+egquvVuer6/cY0iYgohAqhiIgUU9n7bapFqnvqgNTZqZtTQ1MfpaZFVvAKbXrVdR1adZ3Prrru3avW4bemUkREIVQIRUQkX4Uv+/nmGlWF4/DU5alHUm+nJiloRWlS1fpk69S/at2y9WviZ6oiIgqhQigiIksrfllZ2Cp1TOrq1JOpUan5ClZQ5let65NV63xM1bo3cReIiCiECqGISNilb4VU06q/SzspdWdqZIR/t8ey/55xZNVcZPOxbapZNjfuHhERhVAhFBEprfL3h1S3qo39wKqfEJYrPdRCedX8DKyap2yu/uAuExFRCBVCEZHiKH/ZCZTbVx0wkv3d2Fglhnowtmrezqmav9XdjSIiCqFCKCJS2PL359QOqYtTzzjYhSIzuWouL66a05XdtSIiCqFCKCJSu/KXvb9v/dSxVe+n+0LhoARlc3tvqk/VPHufooiIQqgQiogspQCunNo9dVVqRGqeMkGA5lXN91VV876Ku19EFEKFUCEUkRgLYOPUPlUvGB+tKBCx0VX3wb7ZfeHpICIKoUIoIhJiASxL9U7d5eefsNyfmQ6sul+ae3qIiEKoEIqIlGIB/FNqj9RtqfE2+VBr2f1ze2rP7L7ydBERhVAhFBEpxgK4Uqp76tKq97ZV2MhD3mX31TtV91l2v/3W00dEFEKFUESkoUpgm9SJqaGp2TbrUO/mVN1/2X3Y1lNJRBRChVBEpJAFMPsWsEfqGn8HCEXpy6r7c8vsfvXUEhGFUCEUEalrCVy56nCLh1IzbbihZGT368NV9+/KnmYiohAqhCIiNS2B2U9Bz656X5q/BYQw/vZwZNV93c5TTkQUQoVQRGTJEtgpdZF3AkI07z7M7vfOnn4iohAqhCISZwFcIbVh6vKqvzuySYZ4/+5wQNXzYAVPRxFRCBVCEQm7BG6aujY1wUYYWEL2XLi+6jmxoqemiCiECqGIhFEEO6T6KYFAjuUw+wVBB09REVEIFUIRKb0SWJY6KzXKxhaoo0+qDqRp7ukqIgqhQigixVsCV0kdW3U6qE0sUAhvpPpkzxtPXRFRCBVCEWn4Epi9LL5X6qnUIptVoJ4sTj2d2j17Dnkai4hCqBCKSP0WwezvAq9JTbMxBRrYtKrDqjp6OouIQqgQikjhSuAfq34S+p4NKFCk3qv6SemfPLVFRCFUCEWk7iVwxVTP1IOp+TabQInInlcPpbb1CgsRUQgVQhHJvQhmB8ScnhprYwmUuOw5doaDaEREIVQIRWT5RTB7IfS9vg0EArSg6vm2uae9iEKoECqEIvKfEvj7qr+5+diGEYjo3YbZc+8PPgVEFEKFUCEUibUIrpO6LTXb5hCIVPb8uz07OdmngohCqBAqhCIxlMDskJidUi/YCAL8zIupnR1CI6IQKoQiEmIR/F3quNQXNn0A1foydXz23PTpIaIQKoQiUupFsCx1VepHmzyAnMxMXZ09R32aiCiECqGIlFoR3Dj1aGqxTR1AnVSkHktt4tNFRCFUCEWkmEvgCqntU6/awAEUxGupHbLnrU8dEYVQIRSRYimCv07tn/rIZg2gXmSv6Tkge/76FBJRCBVCEWmoIvh/q96jNd7mDKBBTKg6sOu/fCqJKIQKoYjUVxH8U+q81DSbMYCikD2P+6b+7FNKRCFUCEWkUEXwz6l+qXKbL4CiVF71nFYMRRRChVBEFEEAxVBEFEKFUEQUQQDFUEQUQoVQRBRBgGiL4ao+5UQUQoVQRJZVBP+oCAIEbW5qgG8MRRRChVBEfloE/zt1TmqGzRJAFLLn/bnZ89+noIhCqBCKxFsEV6p6f9UkmyOAKE1JHZ99HvhUFFEIFUKReIrgiqneqXE2QwBUveA++1z4lU9JEYVQIRQJtwiukNol9YnNDwBLkX0+7JZ9XvjUFFEIFUKRsMpg19TrNjsA1MAbqY18eooohAqhSOkXwbLU/TY3ANTCg6nmPk1FFEKFUKT0iuD/pPqn5tvQAFAH2efIFdnnik9XEYVQIRQp/iL469SxqWk2MQDkUfa50if1G5+2IgqhQihSnGVwx9QYmxYACij7nNnZp66IQqgQihRPEWyTetYmBYB69FyqrU9hEYVQIRRpuCL4u9SA1AIbEwAawMKqz6Hf+1QWUQgVQpH6K4LZ+wT3S020GQGgCHyXOsD7C0UUQoVQpPBlsGPqNZsPAIpQ9r7bTj6tRRRChVAk/0Xwj6kbU4ttOAAoYtnn1M3Z55ZPbxGFUCEUqXsRzH4eemBqqk0GACX2morefkYqohAqhCK1L4OtUs/bVABQwl5MtfapLqIQKoQiNS+Cv02dl5pnIwFAAOanzs8+33zKiyiECqFI9WWwe2q0zQMAgb7UvrtPe1EIFUKFUOSXRfDPqYE2CwBEIPu8+7NPf1EIFUKFUORfZXC/qj++t0kAIBbTs88/uwBRCBVChVBiLoKNUk/YFAAQsaezz0O7AlEIFUKFUGIrg9lR3DNsBACg8vPwUK+oEIVQITQdEkMRbJIa7sMfAH4h+3xsYrcgCqFCKBJiEcxeMH9kaqYPfABYpuxz8hjfFopCqBCKhFQGy6pezOuDHgBq/kL7MrsIUQgVQpFSL4PZ30TM8sEOADkrTx1uNyEKoUIoUopFcJXUkz7MAaDOhqRWtbsQhVAhFCmVMrhzaqoPcADIm+xzdVe7DFEIFUKRYi6Cv0vd4UMbAArmrtTv7TpEIVQIRYqtDG6a+soHNQAUXPZ5u5ndhyiECqFIMRTB36T6pRb7gAaAelORujz7HLYbEYVQIRRpqDLYPPWmD2UAaDBvp1rYlYhCqBCK1HcZ3Cf1ow9iAGhw2cvs97U7EYVQIRSpjyL4X6k7ffgCQNEZmPpvuxVRCBVCkUKVwY6p0T5wAaBojUl1smsRhVAhFMlnEVwh1Sc13wctABS97PP6+Ozz2y5GFEKFUKSuZfB/U0/4cAWAkjMk+xy3mxGFUCEUqW0ZXDc11gcqAJT0Owu72NWIQqgQiuRaBo9IzfNBCgBB/IT0r3Y3ohAqhCI1KYLZKaL3+PAEgOAMyj7n7XZEIVQIRZZVBlunPvKBCQDBGpVqY9cjCqFCKLJkGdwjNcsHJQAEL/u838vuRxRChVAkK4K/Tl3jwxEAonNdtg+wGxKFUCGUeMvgn1Iv+kAEgGhl+4CV7YpEIVQIJb4y2DE1zgchAERvfKqT3ZEohAqhxFMG907N8QEIAFTJ9gX72iWJQqgQSthF8Fep/j70AIBlGJDtF+yaRCFUCCW8Mvi/qWd80AEAyzE89Ue7J1EIFUIJpwy2S33hAw4AqKEvU+3tokQhVAil9Mtgz9SPPtgAgBzNTG1rNyUKoUIopVsGj04t9oEGANRSto841q5KFEKFUEqrCGaHx1znQwwAyJMbHDYjCqFCKKVRBn+fGuqDCwDIs+xwuj/YbYlCqBBK8ZbBZqmPfWABAAUyKttv2HWJQqgQSvGVwa6pyT6oAIACm5LayO5LFEKFUIqnDPZKzfUBBQDUk3mp3e3CRCFUCKXhy2AfJ4kCAA10AunxdmOiECqE0jBFcIXUAB9GAEADuzLbl9idiUKoEEr9lcGVUvf6AAIAisT92f7ELk0UQoVQCl8G/5B63gcPAFBkXvRaClEIFUIpbBlslPrQBw4AUKT+mWps1yYKoUIo+S+D7VNf+6ABAIrcN6m17N5EIVQIJX9lcIPUVB8wAECJmJ7tX+ziRCFUCKXuZXCL1EwfLABAiSlP9bCbE4VQIZTal8FdUvN9oAAAJWpBale7OlEIFULJvQwetLIXzgMApS/bzxxsdycKoUIoNS+DJ/jwAAACc6JdniiECqEsvwxe4AMDAAjURXZ7ohAqhLL0IrhC6nofFABA4P6W7Xvs/hRChVAhlJ+XwZt8QAAAkbhJKVQIFUKFUP5VBn+Vut0HAwAQmXuyfZDdoEKoECqEsZfBwT4QAIBIDVYKFUKFUCFUBgEA4i6FK9kdKoQKoUIYUxlcKfW4DwAAgEpPKoUKoUKoEMZUBp/04AcAUAoVQoVQIVQGAQBQChVChVAhVAYBAJRCpVAhVAgltDL4K38zCACgFIpCqBDGWQadJgoA4JUUohAqhMogAABKoUKoECqEoZfBFVK3e5ADANTJ3dm+yu5SIVQIpdTK4E0e4AAAeXGTUqgQKoRSSoXweg9uAIC8+ptdpkKoEEoplMELPLABAAriIrtNhVAhlGIugyd4UAMAFNSJdp0KoUIoxVgGD/KABgCoFwfbfSqECqEUUxncObXYwxkAoF5k+65d7UIVQoVQiqEMbpGa78EMAFCvFqR62I0qhAqhNGQZ3CA10wMZAKBBlGf7MbtShVAhlIYog+1TUz2IAQAa1PTUWnanCqFCKPVZBhulJngAAwAUha9Tje1SFUKFUOqjDP4h9aEHLwBAUflntk+zW1UIFUIpZBlcKfW8By4AQFF6Mduv2bUqhAqhFKIMrpC614MWAKCo3Z/t2+xeFUKFUPJdCAd4wAIAlIQr7F4VQoVQ8lkG+3iwAgCUlOPtYhVChVDyUQZ7pRZ7qAIAlJRs/7a73axCqBBKXcpg19RcD1QAgJI0L7WRXa1CqBBKbcpgs9RkD1IAgJI2JdvX2d0qhAqh5FIGf5/62AMUACAIo1b2jkKFUCGUGpbBX6WGenACAATlmWyfZ7erECqEsrxCeJ0HJgBAkG6w21UIFUKprgwe7UEJABC0Y+16FUKFUJZWBnuu7PUSAAChy/Z729j9KoQKofy0DLZL/egBCQAQhWzf194uWCFUCCUrg/+b+sKDEQAgKl+m/mg3rBAqhHGXwV9VnTjloQgAEJ/hTh5VCBXCuAthfw9CAICoDbArVggVwjjL4N4egAAApPa1O1YIFcK4ymDH1BwPPwAAqvaFHe2SFUKFMI4y+KfUOA8+AAB+YnxqZbtlhVAhDLsM/jr1ogceAABLke0Tf23XrBAqhOEWwms86AAAqMa1ds0KoUIYZhncwwMOAIAa2MvuWSFUCMMqg61TszzcAACogWzf2MYuWiFUCMMog/+V+siDDQCAHIzK9pF20wqhQlj6hfAeDzQAAGphkN20QqgQlnYZPMKDDACAOvirXbVCqBCWZhlcNzXPQwwAgDqYn+pid60QKoSlVQb/NzXWAwwAgDz4Kttf2mUrhAphaZTBFVJPeHABAJBHQ7J9pt22QqgQFn8h7OOBBQBAARxnt60QKoTFXQY7Vv3O2wMLAIBC/D1hJ7tuhVAhLM4ymL1vcLQHFQAABTQm9d923wqhQlh8hfAODyiA3KzauCzZePMeyaFHHJ1cdvkVycB7/p489fSw5Nnn/pG8PmJk5f855KmhyV13D0ou6dc/OejQI5L1N9rctQNid5fdt0KoEBZXGdzHgwmgZtqu0zk56dQzkmHPDE9+mDEjqU2mTJmaPPr4k8kRRx2bNFuznesKxGhfu3CFUCEsjjLYPPWjhxJA9Xbfe//KErho0aIkn5k9e3YycNDgym8aXWcgIjNTLezGFUKFsGHL4G9Sb3ogASzbXvsdmLz73vtJoVNRUVH5reG6G27iugOxeCvbj9qVK4QKYcMVwn4eRABL13mDjZNnhj+X1HfmzZuXXHzZ5clqTVpYByAGl9uVK4QKYcOUwU1Tiz2EAH7p6ONOTGbNKk8aMm++9XbSab2u1gMIXUVqM7tzhVAhrN8y+LvUVx5AAD+XfSuXnQhaLJk6dVrSc/udrQ0Qumxf+nu7dIVQIay/QugVEwBLaNKiTfLSy68kxZa5c+cmu+2xjzUCQnenXbpCqBDWTxncyQMH4Jdl8NXXRyTFmqwU7rr73tYKCN0udusKoUJY2DK4Smqqhw3Af/xljeaVr5Mo9sycOcurKYDQZfvUVe3aFUKFsHCF8EkPGoCfu+HmW5NSybhx45PmrdtbNyBkQ+zaFUKFsDBl8FAPGICfO/CQw5NSS/auQmsHBO4wu3eFUCHMbxksS83ycAH4jzZrd0qmT5+elGJ6H3akNQRCVp7tX+3iFUKFMD9lcIXUix4sAD/30COPJaWaid99l5S1amcdgZBl+9cV7OYVQoWw7oXwSA8UgJ/rud1OSamn/5VXW0sgdEfbzSuECmHdymCT1EwPE4Cfe33EyJIvhLNnz05ar9XJegIhy/axTezqFUKFsPaFcLgHCcDPbb9zrySU+JYQiMBwPx1VCBXC2pXB3h4gAL/09NBngimE2aE4jctaWVcgdIfY3SuECmFuZbBRaoaHB8DPdVp/o2Tx4sVJSOlzwsnWFghdtq9tZJevECqENS+ET3hwAPzSNdfdkISW9z/40NoCMXjKLl8hVAhrVgb388AA+KVGTVsm06ZNT0LMVtvuaI2BGOxnt68QKoTVl8E/p6Z5WAD80lHHHp+EmvseeMgaAzHI9rl/VggVQoVw2YVwoAcFwNK99fY7wRbCefPmJa3adbDOQAwGKoQKoUK49DLY3QMCYOm6b7VtEnr6XniJtQZi0V0hVAgVwp+Xwd+mPvVwAFi6QYPvC74QfjVuXLJq4zLrDcRgTLb/VQgVQoXwP4XwPA8GgKVr2WbtZM6cOUkM2Wu/A605EIvzFUKFUCH8VxlslZrnoQCwdGefd0ESS54Z/pw1B2IxP9VaIVQIoy6E6U2wQup5DwSApVulUbPk8y++jKYQVlRUJJ032NjaA7F4MdsPK4QKYcyF8EAPAoBl67XXfklsue5vN1p7ICa9FUKFMMpCmA7/H1NTPQQAlm3osGejK4TTpk1PGjVb0/oDscjeTfhHhVAhjLEQ3ugBALBsHbtsmCxatCiJMUf1OcEMADG5SSFUCKMqhOnQd0wtdvMDLNuV11yXxJp33n3PDAAxyfbFnRRChTCmg2Rec+MDLFujpi2TKVOmJjFni623MwtATF6L5YAZhVAh3M8ND1C9I446Nok9f7/3frMAxOYAhVAhDL0M/i410c0OUL03Rr4ZfSGcM2dO0rLN2uYBiMl3qd8rhAphyIWwvxsdoHqb9+iZyL9yTt8LzAQQmwEKoUIYahlsk1rgJgeo3sBBgzXBqnw5dmyySqNm5gKIycJs36wQKoQhFsJn3eAA1Wveun0ye/ZsTfAn2X3v/c0GEJvhCqFCGFoZ3NGNDbB8Z5x9nga4RIY9M9xsADHaWSFUCEMpg79OjXFTA1Qv+2nkmM8+1wCXyKJFi5KOXTY0I0Bssv3zrxVChTCEQnisGxpg+XbdfW/tbxm56trrzQgQoz4KoUJY6mXwf1JT3cwAyzfkqaGa3zIydeq0pFHTluYEiM20bD+tECqEXjMBELh1Om9Q+dNIWXaOPLqPWQFiNEAhVAhLtQyWpea7iQGWr/+VV2t8y8kbI980K0CMsv10mUKoEJZiIbzfDQywfKs3aZFMmjxZ46tBNu/R08wAMXpQIVQIS60MdnXjAtTMoUccrenVMAMHDTYzQKy6KoQKYamUwRVSr7tpAWrm9REjNb0aZvbs2Unz1u3NDRCjN7J9tkKoEJZCIdzFDQtQM5t030rLyzFnntPX7ACx2lUhVAiLvQyumPrEzQpQM3cOvEfDyzFjPvs8WaVRM/MDxCjbZ/9KIVQIi7kQ9najAtRMWat2SXl5uYZXi+y6+95mCIhVb4VQISzWMrhSapybFKBmTj3jbM2ulhny1FAzBMRqfLbvVggVwmIshMe5QQFqbvToMZpdLbNo0aJknc4bmCMgVscrhAphsZXB/05NcnMC1MzOvfbU6uqY/ldebZaAWE3O9t8KoUJYTIXwHDcmQM09/uQQja6OmTR5crJ6kxbmCYjVOQqhQlgsZfCPqRluSoCaWavjesnChQs1ujzk0COONlNArLL9958UQoWwGAphPzckQM1dPuAqTS5PeX3ESDMFxKy/QqgQNnQZ/HOq3M0IUDOrNWmRTPzuO00uj9mk25ZmC4hVtg//s0KoEPp2EKBE9D7sSA0uz7njrrvNFhCzfgqhQujbQYAS8errIzS4PGfWrPKkrFU78wX4llAhVAh9OwhQvDbevIf2VqCcesbZZgzwLaFCqBD6dhCgeN12x12aW4EyevQYMwb4llAhVAh9OwhQnJq2bJvMnDlLcytgdtptD7MG+JZQIVQIfTsIUHxOOe1Mja3AeeyJIWYN8C2hQqgQ+nYQoPiM+uRTja3AWbBwYdK+YxfzBviWUCFUCAtYBv/k20GA3Oywy+7aWj3l8gFXmTnAt4QKoUJYwEJ4nhsNIDePPv6kplZPmfjdd8lqTVqYOyBmfRVChbBQZfD/pqa5yQBqrl2HdSt/yij1l4MOPcLsATHL9uv/pRAqhIUohH3cYAC5ubTfAA2tnvPKq6+ZPSB2xymECmG+y+CvU+PdXAA195c1mifffDtRQ2uAbLTZFmYQiNmEbP+uECqE+SyE+7uxAHJz4CGHa2YNlFtvv9MMArE7QCFUCPNVBldIfeSmAsjNy6+8qpk1UGbOnJU0bdnWHAIx+zjbxyuECmE+CuH2biiA3Gy4STetrIFz0qlnmEUgdjsohAphPgrhq24mgNzcctsdGlkD5+NRn5hFIHavKYQKYV3L4EZuJIDcNGnRJpnx448aWRFk+517mUkgdhsrhAphXQrho24igNyceMrpmliR5OFHHzeTQOweVQgVwtqWwbLUYjcRQG4++niUJlYkmb9gQdJ2nc7mEohZtp8vUwgVwtoUwqvcQAC52XbHXbWwIsvFl11uNoHYXaUQKoS5lsHfpX508wDk5qFHHtPAiixff/Nt8pc1mptPIGbZvv53CqFCmEshPM6NA5Cb7KeJ2U8UpfhywMGHmVEgdscphAphTcvgiqkv3DQAubno0n6aV5HmxZdeMaNA7LL9/YoKoUJYk0K4kxsGIDerNi5Lvv76G82rSFNRUZGsv9HmZhWI3U4KoUJYk0L4gpsFIDcH9D5M6yry3HTr7WYViN0LCqFCuLwyuI4bBSB3L7z4ssZV5PlhxoykSYs25hWI3ToKoUJYXSG8zU0CkJvsp4jZTxKl+HP8SaeaWSB2tyuECuGyyuDvU7PdJAC5ufGW2zStEsmH//zIzAKxy/b7v1cIFcKlFcI+bhCA3KzRvHXlTxGldNJz+53NLhC7PgqhQri0QvixmwMgN8edeIqGVWJ54KGHzS4Qu1EKoUK4ZBnc1I0BkLsPPvynhlVimT9/ftJ6rU7mF4jdZgqhQvjTQnivmwIgN9lPD6U0c+El/cwwELt7FUKF8N9lcJXUfDcFQG6ynx6GnHfefS/Yf9v48ROSVRuXmWMgZguyHqAQKoRZITzdDQGQm+wnh9lPD0PNrFnlyVod10vmzJkT7L9x3wMONstA7E5XCCMvhOkQrJga62YAyM35F10a9LeDd909qPLfOWjwfcH+G597/gWzDMQu6wErKoRxF8Kt3QgAucl+apj95DDkdN9q28p/65bb7BDsv7GioiLp0nVTMw3ErqdCGHchfNBNAJCb7KeGIee99z/42b83e5l7qPnbjTebaSB2DyqEkRbCdPH/6DAZgNxlPzUMOSecfNrP/r3Z/xxqvv/++6RxWStzDcQs6wN/UgjjLITHugEAcpP9xDD7qWHIh8k0bdn2Z//m7H/O/u9DzbHHn2S2gdgdqxDGWQjfM/wAucl+YhjDYTJLuuOuu4P9N7+7xE9kASL0nkIYWSFMF30dgw+Qm+ynhdlPDGM4TGZJm23RM+h/91bb7mjGgdh1UAjjKoTXGHqA3GQ/LYzpMJklvfX2O8H+2++9/0EzDsTuWoUwkkKYLvZKqWmGHiA32U8LYzpMZklHH3disP/2uXPnJq3adTDnQMyyfrCSQhhHIexl4AFyk/2kMOQs7TCZpf1k9ocZM4K9Buedf5FZB2LXSyGMoxA+ZdgBcnPfAw8FXQjv+fu9NboON916e7DX4Ktx45JVG5eZdyBmTymEgRfCdJFXSS0y7AA1l/2UcN68eUEXwi232aFG16Lrpt2Dvg577XegmQdilvWEVRTCsAuhdw8C5Cj7KWHI+fCfH+V0PV4b8Uaw12LYs8PNPBC7YxXCsAvhCEMOUHPZTwiznxKGnJNPOzOna3LYkccEey0WL16cdFp/I7MPxOwNhTDQQpgubpkBB8hN9hPCkFNeXp6UtWqX0zVp1LRlMm3a9GCvybXX32j2gdiVKYRhFsKzDDdAbp4Z/pzDZJbimutuCPaaZGW3UbM1zT8Qs7MUwjAL4SjDDVBznTfYOKmoqHCYzFJ06bpp0NfmqGOPdw8AMRulEAZWCNNF7WCwAXKT/XTQYTLL9vwLLwV7bd56+x33ABC7DgphWIWwn6EGyOHv5JqtGfTfydXmMJklHXjI4UFfn+5bbeteAGJ2uUIYSCFMF3OF1ARDDVBzR/U5wWEyy7FakxbJd5MmBXuNBg2+z70AxCzrDysohGEUwk0NNEBu3nn3PYfJ1ED/K68O9hrNmTMnadlmbfcDELNNFcIwCuG1hhmg5rbYersk9NT2MJkldeyyYeW7+0LN2edd4J4AYnadQljihdDPRQFy9/d773eYTA6GPTM82Gv1+RdfJqs0aua+APxsVCEs2UK4oUEGqLnsJ4LZTwUdJlNz++zfO+jr1Wuv/dwbQMw2VAhLuxBebogBau6cvhc4TCZHqzYuSyZM+DrYazZ02LPuDcBpowphyRbCLw0xQM1kPw38cuxYh8nUwiX9+gd7zRYtWlT5t5LuESBSXyqEJVoI08XraIABam73vfd3mEwtte/YJVm4cGGw1+2Kq691jwAx66QQlmYhvMjwAjgcpVCHySzpiSFPBXvtpkyZmjRq2tJ9AsTqIoWwNAvhaMMLUDOd1usa9OsTspx6xtkFvYa77blv0NfviKOOda8AsRqtEJZYIUwXrY3BBai5q669Pugyk52c2rx1e3+DWYe8MfJN9woQszYKYWkVwrMNLUDNZD8FnDp1WtCFcPB9D9TLtex7wcVBX8fNtujpngFidbZCWFqFcIShBaiZI4/uE/xhMj2326lermXrtTol8+fPD/Y6Drzn7+4ZIFZvKIQlUgjTxVo5VWFoAWrmzbfeDroMfjzqk3q9ng89/Giw1zJ7j2Ohf3oLUKSyfrGyQlgahbC3gQWomW5bbhP8t4OnnXlOvV7THXfdI+jrecbZ57l3gFj1VghLoxA+ZFgBaubuQYMdJlMAn346OthrOuazz907QKweUgiLvBCmi7RSaqZhBVi+rCjNnj3bYTIFcOY5fYO+rrv02ss9BMQo6xkrKYTFXQh7GFSAmjnr3PMdJlMgLdusXfntZKh58qmn3UNArHoohMVdCK8xpADLl70z77PPv3CYTAFl306GmoULFyZrd1rfvQTE6BqFsLgL4ReGFGD5dttjH4fJFFj27WTI6X/l1e4lIEZfKIRFWgjTxWljQAFq5umhzzhMph58+M+Pgr3GkyZPTlZr0sL9BMSojUJYnIXwRMMJsHwd1t0wWbRokcNk6sHJp50Z9HU+5PCj3FNAjE5UCIuzEA41nADLN+CqaxwmU0+ardkumTWrPNjr/NqIN9xTQIyGKoRFVghX/tfrJmYbToDqrd6kRTJ58hSHydSju+4eFPT13qTblu4tIDZZ71hJISyuQtjdYAIs3+F/PcZhMvWs+1bbBn2977jrbvcWEKPuCmFxFcJLDSXA8o14402HyTSAt995N9hrnv0kNvtprPsLiMylCmFxFcK3DSVA9TbdYuvgvx0slsNkltTnhJODvu6nnH6WewyIzdsKYZEUwnQx/pSqMJQAcf8tW5Ztd9y1KK/9Gs1bJz/MmBHsdf/k00/dY0Bssv7xJ4WwOArhHgYSoHplrdol5eXlQZfBTz8dXdRrcMttdwR9/XfabQ/3GhCbPRTC4iiEtxlGgOqdfta5wX87eOY5fYt6DTbevEfQ1/+xJ4a414DY3KYQFkchHG8YAao3esxnQZeRuXPnJi3brF306/D6iJHBrsGChQuTdh3Wdb8BMRmvEDZwIUwXocwgAlRvl157Bf/t4P0PPlwSa/HXY44Leh0uu/wK9xwQmzKFsGELYW9DCFC9J596OvhCuN1Ou5XEWjRq2jKZNm16sOvw7cSJyWpNWrjvgJj0VggbthDeZQgBlm3tTusnCxcudJhMEfnbjTcHvR4HHXqEew+IyV0KYcMWwi8MIcCy9b/iaofJFJn1um6WVFRUBLseL7/yqnsPiMkXCmEDFcL04jc2gADLlv1077tJkxwmU4ReevmVoNdlw026uQeBmDRWCBumEO5j+ACW7ZDDj3KYTJHqfdiRQa9L9s5F9yAQkX0UwoYphDcbPoBle23EGw6TKeJvbydNnhzsuvw4c2bStGVb9yEQi5sVwoYphKMNH8DSbdJty+DLYKkdJrOkK6+5Luj1OenUM9yLQCxGK4T1XAjTi76ywQNYttvvHOgwmSLXscuGyeLFi4Ndn48+HuVeBGKyskJYv4Vwd0MHsHTN1myXzJpV7jCZEvDsc/8Iep223XFX9yQQi90VwvothFcZOoClO+X0sxwmUyL2O/CQoNfpoUcec08CsbhKIazfQjjC0AEs3SeffuowmRKxauOy5Otvvg12neYvWJC0Xaez+xKIwQiFsJ4KYXqxf5OaZ+gAfmmn3fZwmEyJ6df/yqDX6+LLLndvAjHI+slvFML6KYTrGziApXvsiSEOkykx7Tt2SRYuXBjsen399TeV34S6P4EIrK8Q1k8hPNawAfxSuw7rJgsCLhaVP0GcPz9Zs+06wa3dU08PC3rdDuh9mHsUiMGxCmH9FMLBhg3gly67/Irgvx186OFHg1y7XnvtF/S6vfDiy+5RIAaDFcL6KYRfGDaAn1utSYvk24kTgy+EO+66R5Drt0qjZslX48YFu24VFRXJ+htt7l4FQveFQljgQphe5D8bNIBfOujQI4Ivg2M++zzoNbzg4suCXr8bbr7VvQrE4M8KYWEL4Q6GDOCXXnn1teAL4Tl9Lwh6DVuv1anyNQ2h5ocZM5I1mrd2vwKh214hLGwhvNiQAfzcRpttEXwZzA6TadWuQ/Br+chjTwS9jsedeIp7FgjdxQphYQvhM4YM4Oduue0Oh8kEIvT3SH7w4T/ds0DonlEIC1sIJxkygP9o2rJt8uPMmQ6TCUj2t5Ihp+d2O7l3gZBNUggLVAjTi7u6AQP4uZNOPcNhMoE5+7wLgl7P+x982L0LhG51hbAwhXB7wwXwcx+P+sRhMoFp2WbtZO7cuWH/PWj7ju5fINqDZRTC2hfCsw0XwH9sv3Mvh8kEKvsWLeScf9Gl7mEgZGcrhIUphI8YLoD/ePjRxx0mE6js7+xCzvjxE5JVG5e5j4FQPaIQFqYQjjVcAP/Sdp3OQb+zLsbDZGL7OfA++/d2LwOhGqsQ5rkQphf1DwYL4D8uvuxyh8kE7pTTzwp6fYf/43n3MhCyPyiE+S2E3QwVwL/8ZY3mydfffOswmcCVtWqXlJeXB7u+FRUVybobbuKeBkLVTSHMbyE8yVAB/MsBBx/mMJlI3D1ocNDrfP0NN7mngVCdqBDmtxAONFQA//LiS684TCYS3bfaNuh1/v7775PGZa2sNRCigQphfgvh24YKoGmywcbdkhgS82EyS3rv/Q+CXutjjjvJOgMhelshzFMhTC/mCqlyQwXQNLnp1tuDL4NffDnWWv9EnxNODnq9333vfesMhCjrLysohPkphM0MFEDTpEmLNskPM2YEXwj7XnCx9V5i3X+cOTPoNe/Rc3trDYSoiUKYn0K4jWECaJocf9Kp4R8ms2BB0nqtTtZ7CbfdcVfQ637v/Q9aZyBE2yiE+SmEThgFSP3zo4+DL4SPPPaEtV6KTbptGfS6z507N1mz7TrWGgjNSQphfgrhnYYJiN02O+wSxWEyu/Tay3ovw8g33wp67c/te6F1BkJzp0KYn0I40jABsXvwoUeiOExmlUbNrPcy/PWY44Je/7FffWX9gdCMVAjzUwhnGiYgZtnf1GUvaneYTNwaNVuz8r19IWfPfQ+w1kBIZiqEdSyE2ck8BgmI3YWX9HOYDJVuuOmWoOdg2LPDrTMQmiYKYd0K4VaGCIjZqo3LkgkTvnaYDJXW32jzoOdg8eLFSaf1ulprICRbKYR1K4THGCIgZvsdeIjDZPiZV157PehZuPrav1lnICTHKIR1K4RXGyIgZs+/8JLDZPiZgw//a9DzMG3a9KRR05bWGgjF1Qph3Qrhk4YIiNV6XTdLKioqHCbDz6zepEUyZcrUoGfiqGOPt9ZAKJ5QCOtWCEcZIsABIg6T4eeuuvb6oOfirbffsc5AKEYphLUshOnFWzE13xABMWpc1ir5/ocfHCbDUnVaf6Pgvz3utuU21hoIQdZnVlQIa1cIvXICiFafE052mAzVeu75F4KejbsHDbbOQCjWUAhrVwi7Gx4gVu9/8KHDZKjW/gcdGvR8zJkzJ2nRei1rDYSgu0JYu0J4uOEBYrT1djtF8e2gw2Tq5i9rNE++nTgx6Bk5+7wLrDUQgsMVwtoVwssNDxCj+x982GEy1Ei//lcGPSeff/Glb5GBEFyuENauED5ieIDYtGrXIZk3b17whfDxJ4dY7zxYu9P6yaJFi4Keld322MdaA6XuYYWwdoXwbcMDxKbvhZdE8XPR3fbc13rnydBhzwY9K08PfcY6A6XubYWwdoVwkuEBYrJq47Jk3LjxwZfBr8aN8zPAPNpjn/2DnpfsG9AO625orYFSNkkhzLEQphfttwYHiM3e+x8UxbeDF1x8mfXO83+RMH78hKBn5oqrr7XWQKn7rUKYWyFsYWiA2Az/x/PBl8EFCxcmbdfpbL3zLCvZIWfy5CnJ6k1aWGuglLVQCHMrhN5BCESl8wYbJxUVFcEXwieGPGW9CyAr2VnZDjmH//UYaw2Usm4KYW6F8ABDA8Tkur/d6DAZ6uTRx58MenZGvPGmdQZK2QEKYW6F8GxDA8SiUbM1k+nTpztMhjrZpddewc/Qpltsba2BUnW2QphbIbzZ0ACxOOa4kxwmQ51lZTt7kXvIuevuQdYaKFU3K4S5FcKhhgaIxbvvve8wGfLinL4XBD1H5eXlSVmrdtYaKEVDFcLcCuFHhgaIQY+e20fx7aDDZOpHq3Ydkvnz5wc9S6efda61BkrRRwphboVwuqEBYjD4vgccJkNe3f/gw0HP0ugxn1lnoBRNUwhrWAjTi/UbAwPEYM226yRz5851mAx5td1OuwU/U9kBOtYaKEG/UQhrVghXNyxADM7te6HDZCiIUZ986ifIAMVndYWwZoVwXcMChC77xmzsV185TIaCOO3Mc4Keq4XpXK3VcT1rDZSazgphzQrhNoYFCN2e+x7gMBkKpnnr9sns2bODnq3+V1xtrYFSs41CWLNCeJBhAUI37NnhDpOhoO75+71Bz9Z3kyYlqzVpYa2BUnKQQlizQniaYQFC1mm9rsnixYsdJkNBbbnNDsHP2MGH/9VaA6XkNIWwZoVwgGEBQnb1tX+L4tvBiy7tZ70b2PsffBj0jL36+gjrDJSSAQphzQrhYMMChKpR05bJtGnTgy+D2aEf7Tt2seYN7ISTTwt+1jbevIe1BkrF3xXCmhXCZw0LEKqjjj0+im8Hn3p6mPUuAk1btk1mzpwV9Kzddsdd1hooFc8qhDUrhO8bFiBUb739ThSFcI999rfeReL2OwcGPWuzZpUnzdZsZ62BUvC+QlizQjjBsAAh6r7VtlGUwfHjJySrNi6z5kVisy16Bj9zp5x2prUGSsF4hbBmhXCmYQFCFPprAP6dS/r1t95FZuSbbwU9c6M++dQ6A6VgpkK4HOlFWtGgACFq0XqtZM6cOQ6ToUEcfdyJwc/eDrvsbq2BUrCiQlh9IfyjIQFCdPZ5FzhMhgbTuKxV8v0PPwQ9e48+/qS1BkrBHxXC6gthC0MChCZ7OfvnX3zpMBka1I233Bb07C1YuDBp12Fdaw0Uu+YKYfWFcF1DAoSm1177OUyGBtd10+7Bz+Cl/QZYa6DYdVYIqy+EPQwJEJqhw551mAxF4ZXXXg96Br/5dmLylzWaW2ugmPVQCKsvhL0MCRCSDutumCxatMhhMhSFw448JvhZPPCQw601UMx6KYTVF8JDDQkQkiuuvtZhMhSNRk1bJlOmTA16Fl9+5VVrDRSzQxXC6gvhKYYEsPl2mAyFc811NwQ/jxtu0s1aA8XqZIWw+kJ4viEBQnHEUcc6TIai06XrpklFRUXQM3nzrXdYa6BYna8QVl8IrzQkQCjeGPmmw2QoSv94/sWgZ3LGjz8mTVq0sdZAMbpSIay+EF5vSIAQbN6jZxRl0GEypSk7eCX0nHjK6dYaKEbXKYTVF8KBhgQIwcB7/h5FIfxx5sxk6+12suYlZrUmLZJvJ04MejY/+niUtQaK0UCFsPpC+IAhAUpd89btk/Ly8iSWzF+wwLcxJaj/lVcHP5vb7LCLtQaKzf0KYfWF8HFDApS6M84+L4kxgwbflzRqtqYZKBExvCPzwYcesdZAsXlcIay+EL5gSIBStkqjZsmYzz5PYs1773+QdOyyoVkoEcOeGR78t9dt1u5krYFi8oJCWH0hfM2QAKVs1933TmLPtGnTK6+DeSh+e+9/UPDzeNGl/aw1UExeUwirL4QfGBKglA15amgiSbJ48eKk74WXVH5jai6KV/b+yOw9kiHn66+/8Z5MoJh8oBBWXwg/MyRAqVq70/qVr2GQ/+SJIU8lzdZsZz6KWPYeydCz34GHWGugWIxRCKsvhOMMCVCqYji1sTYZPeazZMNNupmRItWuw7rJgsD/i4znX3jJWgPFYpxCWH0h/M6QAKVo9SYtkkmTJ2t/y8jMmbOSAw4+zKwUqeyb3JBTUVGRrNd1M2sNFINvFcLqC+EMQwKUokOPOFrrq0GuvOa65C9rNDczRWa3PfYJfvZuuPlWaw0UgxkKoUIIBOj1ESO1vRrmhRdfTlq162Buikh2+M8XX44Neu5+mDEjaVzWynoDCqFCCJBfm3TbUsvLMRMmfJ1032pb81NE+l5wcfBz1+eEk601oBAqhAD5dcddd2t4tci8efOSY447yQwViexb2/nz5wc9c+9/8KG1BhTCIi+E8wwJUErKWrVLZs0q1+7qkNvvHJg0atrSPBWBhx5+NPh523q7naw10JDmKITVF0JDApSUU884W6PLQ956+51krY7rmakGtsMuuwc/a/c/+LC1BhqUQqgQAgEZPXqMNpenTJ48pbKQmKuG9emno4Oes+xnsQ41AhRChRCgznbutacWl+csXLgwOfOcvuarAWXXP/T0vfASaw0ohAohQN08/uQQDa5Ayf6WrUmLNuasATRv3T6ZM2dO0PM1btz4ZNXGZdYbUAgVQoDaad+xS7Jg4ULNrYAZ9cmnSZeum5q3BjD4vgeCn6+99z/IWgMKoUIIUDuXD7hKY6uHZC8Tt3Gvf1ttu2Pws/Xsc/+w1oBCqBAC5G61Ji2Sid99p63VUyoqKpJ+/a9MVmnUzPzVow//+VHwc9V5g42tNaAQKoQAuel92JFaWgPkmeHPJS3brG0G68lJp54R/Exd97cbrTWgECqEALl59fUR2lkD5cuxY5NNt9jaHNaDpi3bJrNmlQc9T9OnT08aNVvTegMKYREVwnmGBChmG222hVbWwJk9e3Zy+F+PMY/14K67BwU/T8ccd5K1BurTXIWw+kI4w5AAxezW2+/UyIokN95yW+Xfc5rLwtm8R8/g5+idd9+z1kB9mqEQKoRACf+EbubMWZpYEeW1EW8k7Tqsaz4L6O133g1+jrbYejtrDSiECiFA9U457UwNrAjz7cSJSc/tdzajBXLs8ScFP0N/v/d+aw0ohAohQPWyF6VLcWb+ggXJyWlhN6f517isVeX7IEPO3LlzkzXbrmO9AYWwCArhd4YEKEY77LK71lUCGXzfA5UFxszm1y233RH87Jzb90JrDdSHiQph9YVwnCEBitEjjz2hbZVI3v/gw6TTel3NbR513bR78HOTvdJklUbNrDdQaOMUwuoL4WeGBCg2bdfpnCxYuFDTKqFk75fbbc99zW8evT5iZPBzs/ve+1troNDGKITVF8IPDAlQbC7tN0DDKsEsXrw4ueDiy3zrkydHHHVs8DMz7Jnh1hootA8UwuoL4WuGBCgmf1mjefLNtxO1qxLOkKeGJmWt2pnnOmrUtGUybdr04P9LBD83BgrsNYWw+kL4oiEBismBhxyuUQWQMZ99Xvl3cGa6bq6/4abgZ+Wqa6+31kAhvaAQVl8IHzckQDF5+ZVXtalAMmtWeXLQoUeY6zro0nXTpKKiIug5mTp1WuW3odYbKJDHFcLqC+EDhgQoFhts3E2LCjBXX/u3yp8Cm/HaeenlV4KfkSOP7mOtgUK5XyGsvhAONCRAsbj51ju0p0CTlZpW7Tuacz+jXmrefOttaw0UykCFsPpCeL0hAYpBkxZtkhk//qg5BZyvv/4m6dFze/Oeo9WatEgmTZ4c/Hx023Ib6w0UwvUKYfWF8CpDAhSDE085XWOKIPPmzUv6nHCymc/RFVdfG/xsDBw02FoDhXClQlh9ITzfkADF4KOPR2lLEeXOgfc4SCQHHbtsWPmKhpAze/bspHnr9tYbyLfzFcLqC+EphgRoaNvuuKuGFGHeefe9ZO1O67sHaujZ5/4R/Eycde751hrIt1MUwuoL4WGGBGhoDz38qHYUaaZMmZrstNse7oMa2Gf/3sHPw2eff5Gs0qiZ9Qby6VCFsPpC2MuQAA2pzdqdkvkLFmhGEWfhwoXJ2edd4H5YjlUblyVff/Nt8POw2x77WG8gn3ophNUXwh6GBGhIF13aTyOSyjz86ONJ05Zt3RfVuLTfgODnYMhTQ601kE89FMLqC+G6hgRo0G88vv5GE5L/n08+/TRZr+tm7o9laN+xS+U3qiFn0aJFyTqdN7DeQL6sqxBWXwhbGBKgoRzQ+zANSH6R7H2U+x5wsHtkGbJv0ELPgKuusdZAvjRXCKsvhH8yJEBDeeHFl7UfWWoqKiqS/ldc7YCRpdhtz32DX//Jk6ckqzdpYb2BfPijQlh9IVzRkAANIftZYLbpjyELAv+JXyEz/B/PJy3brO2e+YmsJH81blzwa3/YkcdYbyAfVlQIq/sPlCa9SDMNClDfbrj51mhKzZXXXJecfta5wf/tV6GSlZ/NtujpvvmJvhdeEvy6vz5ipLUG6mpm1ncUwuUXwgmGBahPazRvnfwwY0Y0P33stP5Glf/unXvtmUyfPl3Dq0XmzJmTHHl0H/dPldZrxfG6lk26b2W9gbqYoBDWrBB+YFiA+nTciadEU2T+8fyLP/u3Z+Xwnx99rOHVMjffekeymr8tq5S9piP03DnwHmsN1MX7CmHNCuFwwwLUpw8+/Gc0BebAQw7/xb+/SYs2ySOPPaHd1TIj3ngzaddh3ejvox133SP4tS4vL0/KWrXz3ARq61mFsGaFcLBhAepLz+12iqa4TJo8udpvsy64+LJk8eLFGl4t8t2kSck2O+wS/f005rPPg1/rU88427MTqK3BCmHNCuEAwwLUl/sffDia0pIdJrO867HnvgdUvndPck92euspp58V9f105jl9g1/n0aPHeHYCtTVAIaxZITzdsAD1oVX7jsn8+fOjKCs/PUxmedbfaPNk9JjPNLxa5r4HHkoal7WK8p7KXskxd+7c4Nc4O5DJMxSohdMVwpoVwoMMC1Afzr/o0mhKyvMvvJTTtcn+TmrosGe1u1om+7vUmhbw0GSFOPQ8/uQQz1CgNg5SCGtWCLc1LEChrdq4LBk/fkI0BeXgw/+a8zXKXjje/8qrtbta5vsffkh233t/f5cbYLJ3eLbv2MWzFMjVNgphzQrhuoYFKLR9Dzg4mmIyZcrUZPU6vBohO5k0O11Rck92SM9Fl/arLNcx3V8fj/ok+LW9fMBVnqVArtZVCGtWCFc3LEChPff8C9GUkmuuu6HO12uTblsmX40bp+HVMk8PfSaq1xWcfNqZwa/pxO++8w5KIFerK4Q1K4QrGRagkNbdcJPKQ1ZiSPbv7NJ107xctzXbrpO88OLL2l0t89nnXyQbb94jinssK78xfKvc+7AjPVOBXPxGIaxBIawqhdMNDFAo199wUzQl5KWXX8nrtfvLGs2Tv914s3ZXy2QlKZYSMfCevwe/nq++PsIzFaip6f/uOgphzQrhR4YGKITsdQDff/99NAWkNofJ1MRfjzkuitcLFCrX/e3GynId8r3Wfatto1jLjTbbwrMVqImPFMLcCuEwQwMUwrHHnxRN6ajrYTLLs8XW2yVff/OtdlfLvPLqa5Xvwgz5fnv3vfeDX8dbb7/TsxWoiWEKYW6F8GZDAxRkg/r+B9EUjnwcJrM8bdbulLw+YqR2V8tkhXqrbXcM9n7rc8LJwa/hzJmzkqYt23q+Astzs0KYWyE829AA+bblNjtEUzTyeZjM8mTfQt5+50DtrpaZP39+ctyJpwR5zzVp0Sb5cebM4NfwlNPO9IwFludshTC3QnigoQHy7d77H4ymZOT7MJmaOOHk05L5CxZoeLXMwEGDk0ZNWwZ3391y2x3Br1323kXPWGA5DlQIcyuE3Q0NkE+t2nWI6hCUQh0mszzb7rhrMnnyFO2ulsn+5m6dzhsEde9l77CMIdvv3MuzFqhOd4Uwt0LY0tAA+XTe+RdFUyoKfZjM8qzVcb2o/lYz35k6dVqyc689g7r/RrzxZvDr9vCjj3vWAtVpqRDmVgh/a2iAfFm1cVny1bhx0RSK+jhMZnkaNVszqp/o5juLFi1Kzu17YTD3YPaaktCzYOHCpO06nT1zgWX5rUKYQyGsKoWTDQ6QD3vtd2A0RaI+D5OpiTPP6ZssTDfKUrs89sSQIE6wzP4LgunTpwe/Xpf2G+CZCyzNpJ/2HIWw5oXwbcMD5MMzw5+LpkC88trrRXf9d9197yjKQKHy6aejk/U32rzk78O/3Xhz8GuVvUbkL2s099wFlvS2Qli7QviI4QHqqtP6GyWLFy+OpjwcduQxRbsO2UmMUrtkr27Y78BDSvpezEptDDng4MM8e4ElPaIQ1q4QDjA8QF1de/2N0ZSGadOmF/VrC7J30j36+JPaXR0y4KprKv8mtlTvx5dfeTX4NXrxpVc8e4ElDVAIa1cIDzc8QF3/bikrSbEk+0lesa/JKo2aJRdcfFlU39rmO889/0KyZtt1SvKezF6HEkM22LibZzDwU4crhLUrhN5FCNTJUX1OiKoolNLfme29/0HJjB9/1O5qmXHjxieb9+hZcvdk9jqUGN5TefOtd3gGAz/VXSGsXSFsaniAunjn3feiKQjFeJjM8my4SbdkzGefa3e1zNy5c5Ojjj2+5Nb9ymuuC35tfpgxo/In0p7DQJWmCmHtCuGKqfkGCKiN7lttG1U5KNbDZJanrFW7qE6BLURuvf3Oym/eSumgp+z1KKHn+JNO9SwGkqo+s6JCWItCWFUKPzFEQG0MGnxfNIWg2A+TqcnfFWaHpUjt88bIN5P2HbuUzJo/+9w/gl+Tf370sWcxkBm1ZMdRCHMrhEMMEZCrlm3WTubMmRNNGSiFw2Rq4qBDj0jKy8u1u1pm0uTJybY77loSa73/QYdGsSbb7LCLZzIwRCGsWyG82hABuTqn7wVRFYEQXlr+b5tusXXy1bhx2l0ts2DhwuT0s84t+nXOXt7+zbcTg1+PBx96xDMZuFohrFshPMYQAbn+/PDLsWOjKQCleJjM8mSvVHjp5Ve0uzrkgYceTtZo3rqo17lf/yuDX4f58+cnrdfq5NkMcTtGIaxbIexpiIBc7L73/lFt/Ev1MJmafIN0w023aHZ1/Bu2zhtsXLRrvHan9ZNFixYFvw4XXtLPsxnitrVCWLdC2MQQAbkY9szwaDb8pX6YTE389ZjjKl+vILVL9vqDPfbZv2jX96mnhwW/BhMmfJ2s2rjM8xni1UQhrEMhrCqFMw0SUBMdu2wYxTcO/04oh8ksz5bb7JB8/c232l0ts3jx4uTSfgMqf05dbGubldUYst+Bh3hGQ5xmLq3fKIS5F8KRhgmoiauuvT6qjf4GG3eLZm3bdVg3GfHGm9pdHTJ02LNJ89bti2pds2/OYjhE6LnnX/CMhjiNVAjzUwjvMkzA8mQ/nZw6dVo0m/vXR4yMbo2zl6/fdfcgza4O+eLLsckm3bYsqnW94OLLgr/uFRUVSZeum3pWQ3zuVAjzUwhPNUzA8hx5dJ+oNvbZ39bFutYnnnJ65esVpHbJ3vV4yOFHFc16tl2nczJ/wYLgr3t2SJJnNUTnFIUwP4Vwe8MELM+bb70dzYb++++/Txo1WzPq9c5ewD558hTtro4FJTvNtRjW85HHngj/vv3hh6RxWSvPa4jL9gphfgphM8MEVGfzHj2j2sjfeMtt1j21TucNknff/0Czq0Oy91i2Wbvh35O3S6+9orjefU442b0LcWmmEOanEK6QKjdQwLIMHDQ4qk181027W/d//+1oszWT+x98WLOrQ775dmKy9XY7Neg6Ziegjvns8+CvdfZfYLhvIRpZf1lBIcxDIawqhW8bKmBpslMTZ8+eHc3mPcbDZGrirHPPj+qVI/nO/PnzkxNOPq1B1/CcvhdEca232nZH9yzE4e1ldRuFsHaFcKChApZVBGJKzIfJLM+uu+9d+feVUvvc8/d7G+zvU1u165DMnTs3+Gt83wMPuV8hDgMVwvwWwpMMFbC0n5l99vkX0WzWHSazfJ032Dj5eNQnml0df9bYscuGDbJ+Mfz8d968eZXl1/0KwTtJIcxvIexuqIAl7bbHPlFt1B0mUzNNW7ZNHn9yiGZXh0ybNr3yG9eGOD02hvS94GL3KoSvu0KY30L4P4YKWNJTTw+LapPuMJncvj2++LLLk8WLF2t3tUz2N5lZccmuZX2uXQzf8H41blyyauMy9yqE7X8UwjwWwqpSONZgAf+WvXIgpkNEHCZTO/vs3zv5ceZM7a4Oyb5tbbZmu3pbs9POPCeK67rXfge6RyFcY6vrNQph7Qvho4YL+LcBV10T1abcYTK1t+Em3aL6W9NCZPToMZXXsb5ODi4vLw/+mj4z/Dn3J4TrUYWwMIXwXMMFZFZv0iKZPHlKNJtxh8nkp2RkG3CpfbJvWg/ofVi9rFd22mnoqaioqDwEyf0JQTpHISxMIdzecAGZw/96TFQbcYfJ5O/vCq+85jrNro7JrmGh//6tR8/to7iW115/o3sTwrS9QliYQtjIcAGZEW+8GdUGfJNuW1r3POp92JHJ7NmzNbs65PkXXir4qxPee/+D4K9jdpqrb/8hSI0UwgIUwqpSONmAQdw26b5VVBvvkW++Zd0LYNMttk7Gj5+g2dUh2fXrvtW2BVujE04+LYrreFSfE9yTEJbJy+s0CmHdCuEzhgzidufAe6LadB993InWvUCyb7hefuVVza4OmTt3bsFmtEmLNlGcEPvOu++5HyEszyiEhS2ElxgyiFdZq3ZRnD747/wwY0bSuKyVtS+gv6zRvPJvNKVuuf3OgZWHPeV7fbL/f2NIIb9pBerdJQphYQvhDoYM4nX6WedGtcm+5bY7rHs9yX62N2/ePM2uDnnzrbeTtTqu5yfitcigwfe5DyEcOyiEhS2EqxgyiNfoMZ9FtcF2mEz92nKbHZJvJ07U7OqQ7HUw2+/cK6/rkv0dbeiZM2dO0rLN2u5DCMMqCmEBC2FVKfzSoEF8dum1V1Qba4fJNIx2HdZN3hj5pmZXhyxYuDA585y+eVuT7G8UY8g5fS9wD0Lp+7ImfUYhrHshvNewQXwef3JIVJtqh8k0nEZNWyZ33T1Is6tjHnr40WSN5q3rvh7N1ky+//774K/Xl2PHVr4r0z0IJe1ehbB+CuFxhg3ikv1d0sKFC6PZSDtMpjicfNqZld92Se3z8ahPki5dN63zWsRy8E+vvfZz70Fp66MQ1k8hXN+wQVz6X3F1VJtoh8kUj+122i2ZMmWqZlfH/4Jjr/0OrNM6bLBxtyiu1dBhz7rvoLStrxDWTyFcKTXPwEEcVmvSIvlu0qSoNtAOkyku63TeIHn/gw81uzpk8eLFSb/+V9bpJ5GvvPZ68Ndp0aJFSccuG7rvoDRl/WQlhbAeCmFVKXzD0EEcDjn8qKg2zg6TKU7ZT3gfeOhhza6OGfbs8KRF67VqtQaHHnF0FNfoqmuvd89BaXqjpl1GIcxPIbza0EEcXhvxRlQbZofJFLfsJMjsWxyp2+Ep2fsFc7322YvvY/j57tSp0yoPNnK/Qcm5WiGs30K4u6GD8G28eY/o/tbKYTLFb7c9902+/+EHza4OmT17dnLYkcfkfO2vue6GKK7PEUcd616D0rO7Qli/hXBVQwfhu+2Ou6LaJN9+50DrXiI6b7Bx8smnn2p2dUx2euhf1mie03WvqKgI/rpk78J0n0HJWVUhrMdCWFUKRxs8CFezNdsls2aVR7U53myLnta+hDRt2TZ5YshTWl0dk/0svO06nWt83f/x/ItRXJfNe3geQAkZnUuPUQjzVwhvNnwQrlNOPyuqTfHb77xr3UtQdmrmJf36V56iKbXPtxMnJj2326lG1/yAgw+L4poMHDTYPQal42aFsGEK4f6GD8IV28/x+pxwsnUvYfsdeEjy48yZml0dMn/BguSkU89Y7rXOfmKaFcjQU15enjRv3d79BaVhf4WwYQphY8MHYdpx1z2i2ghnRaJJizbWvsR13bR78vkXX2p2dczf770/adRszWqvdf8rr47iWpxx9nnuLSgNjRXCBiiEVaVwrAGE8Dz6+JNRbYAdJhOO7Bud4f94XqurY97/4MOk03pdl3md1+60fhSv/xjz2eeVP0t2b0FRG5trh1EI81sIBxpCCEu7DusmCxYujGrz6zCZsKzauKzy5eJSt0yfPj3ZbY99lnmdhz0zPIrrsOvue7uvoLgNVAgbthD2NoQQlssuvyKqTa/DZMJ1yOFHVb5vT2qf7LCe8y+6dKnfku2134FRXIMhTw11P0Fx660QNmwhbGkIIRyrNWkRxWERP43DZMKWvTpg/PgJml0d8+RTT1e+imbJb2JjuLYLFy6s/Ims+wmKVkuFsAELYVUpnGAQIQwHHXpEVJtch8nEoVW7Dskrr72u1eXh7+k23KTbz67txZddHsW/PTtEx70ERWlCbfqLQpj/QniHYYQwvPLqa1FtcB0mE4/sVQk33Xq7VlfHzJpVnhx4yOH//7pmL7SP4W+OJ02enKzepIV7CYrPHQphcRTCPQ0jlL7sv/mPLQ6Tic/Rx52YzJs3T7OrY7JDe7KSnV3TJ4Y8FcW/+dAjjnYPQfHZUyEsjkL451SFgYTSdsttd0S1oXWYTLy23m6n6P5WthB58aVXKn+Ou0uvvaL4974+YqT7B4pL1j/+rBAWQSGsKoXvGkooXU1btq38e7qY4jCZuGWvV3nzrbe1ujrm66+/SXr03D754suxUfx7N+m2pfsHise7te0uCmFhCuFlhhJK10mnnhHVJnbmzFkOkyFp1LRlcvegwVpdHZP9BPe99z+I4t96x113u3egeFymEBZXIdzCUELp+njUJ1FtYO+6e5B15/875bQzozgYReqe7FCdslbt3DdQHLZQCIurEP42NcdgQunZbqfdotvUdd9qW2vPz+ywy+7JlClTNR5Zbk4942z3DDS8rHf8ViEsokJYVQqHGU4oPQ898lhUm7nsp23WnaXp2GXD5P0PPtR4pNp8+ulo9ws0vGF16S0KYeEK4UmGE0pL9g6x+QsWRLWZO+Hk06w9y9S4rFXy0MOPaj1SbXbabQ/3CzSskxTC4iyE7QwnlJaLL7s8ur//yU5UtfYsz7l9L0wWL16s+chS89gTQ9wn0LDaKYRFWAirSuGXBhRKQ/ZS6a+/+TaqTZzDZMjFbnvum3z/ww/aj/wi2SFE7Tt2cZ9Awxhb186iEBa2EF5rSKE0HHDwYdFt4hwmQ666dN00+eTTTzUg+UX69b/SPQIN41qFsLgL4VaGFErDiy+9EtXmzWEy1Fb2M+MhTw3VgORn+XbixGS1Ji3cI1D/tlIIi7sQrpSaZVChuK2/0eZJRUVFVJs3h8lQF6s0apZcdvkV0d03Un0OOvQI9wfUr6xnrKQQFnEhrCqFjxhWKG433Xp7VJs2h8mQL/sdeEjlPIlkeeXV19wXUL8eyUdfUQgLXwh7G1YoXk1atEl+mDEjqk2bw2TIp4022yL5/IsvtSGpTDYP7guoN70VwtIohKumKgwsFKfjTzo1ug2bw2TIt5Zt1k6G/+N5bUiSW267wz0B9SPrF6sqhCVQCKtK4UhDC8Xpnx99HNVmzWEyFMqqjcuSa667QSOKPD/OnOkn6VA/RuarqyiE9VMIzzG0UHx6br9zdJs1h8lQaIcecXQyZ84czSjinHTqGe4FKLxzFMLSKoRrGVooPg889HBUm7Ty8vKkrFU7a0/Bbd6jZzJhwteaUaT5eNQn7gMovLUUwhIqhFWlcLTBheLReq1Oyfz586PapN3z93utPfWmVfuOySuvva4dRZrtd+7lPoDCGZ3PnqIQ1l8hvNjwQvG48JJ+0W3QttxmB2tPvcpeVJ4dMiLx5aFHHnMPQOFcohCWZiH8f+3debxXdZ348celxB7zcNQpXFF2VHADccukTE1Tf7khVipuadNEImlWpqNpaqbimkv+1DENV1JLRXOnHLRJ3FnSRBQdRQEJELwQnPl8rqdHZYj3wnc553ye78fj+edMyPcs7xf3e88Z5OCF4jz8IrWvsz3z7HM+e5rmW8cel9xP5FOf1kWLsn5bbOX4h/oYJAhLGIR5FL7kAIbmiy/TTm2O/+6JPnuaarc9987eePNNpZTQnPHjnzj2ofZeqnWjCMLGBuEoBzE03/0PPuRhMtAEmw7YOvufPzyhlBKZ6a+9nq27YS/HPtTWKEFY7iDc3kEMzbX1pwdnS5cu9TAZaJKu3fu0HZMmjRl2xFGOe6it7QVhuYOwJXjNgQzNc+nlP/MwGSiAE75/UrZo8WLFVPF56OFxjneonddjTwjCEgdhHoWXOJihOTbouVE2+513PEwGCuJL+w3N3n57pmqq8MRvZGy7w+cc71Abl9SjTwRh44NwsIMZmuOYkcd7mAwUzICtt8+efuZZ5VThufzKqxzrUBuDBWE1grBTMN0BDY331NPPeJgMFNCGvTZue2+dqea8M2dO1q33Jo51WDmxHzoJwgoEYR6F5zioobG+sMeXklvCPEyGsjn1tDOyJUuWKKgKzohvf8cxDivn3Hq1iSBsThAOcFBDY914860eJgMlcMBXDmn7iZKp1sSvBTu+YaUMFIQVCsI8Cic7sKExNuq/Zfbee+95mAyURHw9zJQpf1RRFZvd99rH8Q0rZnI9u0QQNi8IT3ZwQ4O+hnb6mcktXt/53g989pRaj779s7vuvkdFVWhuvnWMYxtWzMmCsJpB2NvBDfW3zgY9s2nTXklq6VqwYEHWa+NNff6U3tpde2RnnzOq7dUFpvzT2tqabbzZQMc2dFxvQVjBIMyj8HEHONTXVw45LLmla/SNN/vsqZRhhx+VzZs3X1FVYH74o7Mc09Axj9e7SQRhc4PwGAc51Ne9992f3u/p7Lm3z57K2eGzO2cvTZ2qqEo+r7zyats3NxzT0G4jBGG1g3CdYIkDHepjq+0+k9xXzZ6fOMlnT2X12WTz7P4HH1JVJZ+Dhh3heIb2iZ2wjiCscBDmUTjWwQ71cfFPL0tu0fruiSf77Km0dTfslV10yWWqqsQTo96xDO0ythE9IgibH4QHONih9rr26JvNmjXLw2Sgoo7+xvC2Y96Ub+I3N+KrRRzH8JGGCsI0gnDVYJYDHmpr+IjjPEwGKu7zX9gjmz79NYVVwrnk0ssdw7B8sQ9WFYQJBGEehRc76KG2Jjz5lIfJQAI22nRA9uj4xxRWyWb27NnZBj03cgzDh7u4US0iCIsRhAMd9FA7O++2Z3LLlYfJkLL1uvXOrrzqGpVVsvnWscc5fuHDbSUIEwrCPAqfcuBDbfzihps8TAYSdMzI49tefm7KMROeetpxC8v2dCM7RBAWJwhHOPhh5fXtt0W2cOFCD5OBRO2+1z7ZG2++qbZKMrvsvpfjFv7ZCEGYZhB2CVqdALBy/vPU0z1MBhK36YCtsycmPKm2SjA33HSLYxb+UeyBLoIwwSDMo3CMkwBW3Npde2RTX37Zw2SArGv3Ptn1o29UXAWf+I2Ojfpv6ZiFvxnT6AYRhMUKwj2cBLDihn71kOSWqYmTJvvsYTni79cuXrxYeRV4Tvnhjxyr8Dd7CsK0g7BT8LITAVbMPffel9wideLJp/rs4SPsM+TA7O23Zyqvgs7L06a1fcPDsQrdp8UeEIQJB2EehT9wMkDHDdzm09mSJUuS+6pVn0029/lDe64R2+6QPfPsc+qroHPgQcMcpxA6oBn9IQiLF4RrB4ucENAxF1z00+QWqJtuGeOzhw7YsNfG2S9v/5X6KuDc85v7HKOkLu7/awtCQfjXKLzJSQEde3jEzJmzklug9tx7f58/rIBTTz8zuW8UFH3i5xF/iuv4JGE3N6s9BGExg3AnJwW0339869jklqfJk6f47GElH0L1zpw5SqxAc9Ellzk2SdlOglAQfjAKJzkxoH3+5w9PeJgM0GHb7vC5bMqUPyqxgkz8pkf8xodjkwTFvb9FEArCDwbhCCcHfLSddv1ickuTh8lA7fTo2z8be89v1FhBJn7jw3FJgo5tZncIwuIG4ZrBAicILN/Prx/tYTLASomvPPjJueersQJM/MaHY5LExH1/TUEoCD8sCq92ksCH673xZtmCBQs8TAaoiWGHH5XNnz9flTV5Pv+FPRyPpOTqZjeHICx2EA5wksCHO+mU0zxMBqipHXfaNXtp6lRV1sS5fvSNjkVSMkAQCsKPisJHnCiw7K94vfinlzxMBqi5vv22yB586BFl1qSJ3/yI3wBxLJKAR4rQG4Kw+EG4r5MF/tn+Bx7kYTJA3ay7Ya/skksvV2dNmvgNEMchCdhXEArC9gRhp2CqEwb+0d1j7/UwGaDuvv4f32r7xxjT2InfAInfBHEMUmFxv+8kCAVhe6NwpJMG/mbLQdtnf/nLXzxMBmiI+JCT6dNfU2kNniFfPtjxR5WNLEprCMJyBOHqwVwnDrzvvAsuSm4x+uMLL/rsoYk22Xxg9uj4x1RaAyd+E8SxR0XFvX51QSgIOxqFFzp5oHvWtXuf7K233k5uMTr5VL9PA822Xrfe2VXXXKvUGjTxmyDxGyGOPSrowiJ1hiAsTxD2CpY6gfD7PN9KbilqbW3NNuq/pc8fCuLY407IWhctUmwNmPiNEMccFRP3+V6CUBCuaBTe4SQideMf+31yC9GtY27z2UPB7L7XPtmMGW8ptjpP/EbI+t16O+aokjuK1hiCsFxBONhJRMoG77xbkgvRl/Yb6vOHAtpswDbZExOeVG11noOGHeF4o0oGC0JBuLJRON6JRKquve4XHiYDFOv3mnv0zUbfeLNq8y0JaI/xRewLQVi+INzbyUSKem28aTZ//nwPkwEK6fsnnZItXrxYvdVh5s6d1xbejjMqYG9BKAhrEYQtwUQnFCkuWx4mAxTZPkMOzGbNmqXg6jAHH3qkY4yymxT3eEEoCGsVhYc6qUjJ2l17tH110tekgKIbuO0O2bPPPa/gajz//+r/cnxRdocVtS0EYTmDcJXgVScWqdh3yJc9TAYojW69N8l+efuvVFwN54UX/+TYoszi3t5ZEArCWkfhsU4uUvHru+72MBmgdE4748fZkiVL1FyNZouttnNcUVbfLnJXCMLyBuFqwUwnGFW3+cBtk3xQg4fJQDV8+eBDszl//rOaq8EceuTRjinKaFbc2wWhIKxXFJ7mJKPqzhl1gYfJAKW27Q6fS/L3oGs98X7geKKETi96UwjCcgdhl2C+E42qWr9b7+zNGTM8TAYovZ4b9c/uufc+VbcSM/ae3ziWKJu4p3cRhIKw3lF4tpONqvra17+Z5NKz9/4eJgNVfWJyit96qNU8MeFJxxFlc3YZekIQlj8I/ZSQynp0/GPJLTx/emlq29Lo84fqir8LN3/+fIXXwXlp6lTHD346KAgFoZ8Skoodd9o1yYXn1NPO8PlDIte4l6dNU3kdmOnTX3Ps4KeDglAQ+ikhqbj6v36e3sNkFi3KNt5soM8fEtG33xbZQw+PU3rtnMmTpzhu8NNBQSgI/ZSQVB6+MG9eel+nii+y9vlDWtbdsFf208uuUHt+h5BqOadMHSEIqxOE8aeEC5yAVMEJ3z8pyWVn3yFf9vlDor4xfES2cOFC1becuf/BhxwrlMHCYD1BKAibFYUXOgmpgilT/uhhMkBydtl9r2z6a68rvw+ZK6682nFCGVxYtoYQhNUKwvXyf5VwMlJa8ZULHiYDpGqTzQdm4x/7vfpbxnznuyc6RvDTQUEoCNsRhec5GSmz2391p4fJAElbv1vvJB+s9VGz1z5DHB8U3agy9oMgrF4Qxt8l/LMTkjLadMDW2aLFiz1MBiAYefx32/7ByGTZu+++m3Xt3sdxQZHNLdOTRQVhhYMwj8JTnZSU0U/OPd/DZAD+zh5f2i+bMeOt5IPwgQcfdjxQdKeWtR0EYTWDcLXgbScmZbJet97Z/77xhofJAHzAZgO2ySY89XTSQXjiyac6FiiymXH/FoSCsGhRONLJSZkcftS/e5gMwIfo2qNvdsNNtyR5nYy/SuD3rCm4kWXuBkFY3SBcNXjVCUpZ/PZ3j3qYDMBHiD8pW5zY71rfPfZenz1FFvftTwhCQVjUKDzCSUoZ7PDZnZP8V+/b7vi1zx/osP0O+Eo2a9Ysv2cNxXBk2ZtBEFY7CD8eTHaiUnRXXnVNkkG4/4EH+fyBFbLVdp/Jnp84qfLXyf8e/7jPmyKbEvdtQSgIix6FQ5ysFFn3Pv2yuXPnJReDL0+b5mEywErp1nuTyr+7dZ8hB/qsKbIDqtALgrD6QdgS/N4JS1F957snJvnTwdPO+LHPH1hp8R+WTj/z7GzJkiWVu056RysFF/frFkEoCMsShZ9x0lJUEydNTvKJef222MrnD9TMVw45LJvz5z9X5jo5+513sk0299AtCm3HqrSCIEwgCPMoHOPEpWj22mdIkj8d/NWdd/n8gZrbfsedsj++8GIlrpNHHP0NnylFNqZKnSAI0wnCXsEiJzBFMua2OzxMBqCGem7UP7v3vvtLfY386WVX+CwpsrhP9xaEgrCsUTjKSUxRxK9MLkrsXVoeJgM06vcKzxl1QSmvkQ89PC5bd8NePkeKbFTVGkEQphWEawaznMgUwVlnn+thMgB1dNCwI0r1e4UTnnyq7cmpPjsKbHbwb4JQEJY9Co91MtNs8V9/X3v9fz1MBqDOtv704Oy55ycW/vo47re/a3sNkc+Mgju2in0gCNMLwlWCF5zQNNOhRx7tYTIADbJBz42yq665trDXxl/ccFPWtXsfnxVF92LQWRAKwqpE4X5Oaprp4Ud+62EyAA0WX00xY8Zbhbkmtra2ZiedcprPhrLYr6ptIAgTDMI8Ch9wYtMM231mpyRj0MNkgCLYeLOB2U23jGn6NfH5iZOywTvv5jOhLB6schcIwnSDsH+w2AlOo11x5dUeJgPQZHvvP7Qp7yx8Z86ctp8Krt+tt8+BsvhL3JsFoSCsahR6DQVN+f3BY0Yen5yN+m/p8wcKZb0QZfH6FL/B0IgQvPDiS10LKaPzq94EgjDtIFw9eNOJDgDpWj8Pwz88MaHmIfjMs89l3z/plKxH3/7+rimjGcEaglAQVj0KD3WyAwDRZ3fePTvvgouyJ596Olu6dGmHA/Ddd99te3DY6WeenW3z6c/6O6XsDk+hBwShIGwJHnPCAwB/L369c/+hX82+94P/bHttxa1jbsvuufe+7NHxj2X33nd/dvuv7syuH31jdtbZ52Zf+/o3s512/WLbe2b93VERcT9uEYSCMJUo3CpY6sQHAIC2vXhQKi0gCAXhX6PwCic/AAB0/1lKHSAIBeFfg7BLMMsFAACAhMV9uIsgFITJBWEehUe6CAAAkLAjU2sAQSgIP/iAmXEuBAAAJGhcKg+SEYSCcHlR2C9odUEAACAhcf/tl+L+LwgF4bKi8HQXBQAAEnJ6qru/IBSEywrCTwQvuDAAAJCAP8X9VxAKQkH4j1G4i4sDAAAJ2DXlvV8QCsLlReF1LhAAAFTYL1Lf+QWhIFxeEK61lncTAgBQTbODtQWhIBSEy4/Cw1wsAACooMNt+4JQELYvCu92wQAAoELutuULQkHY/iDsGsx14QAAoALiXruhLV8QCsKOReHRLh4AAFTA0bZ7QSgIOx6ELcF9LiAAAJTYA3Gvtd0LQkG4YlHYI5jvQgIAQAnFPbanrV4QCsKVi8LhLiYAAJTQcNu8IBSEtfnq6CMuKAAAlMjvgk62eUEoCGsThX18dRQAgBJ9VbSvLV4QCsLaRuG/u7gAAFAC37C9C0JBWJ+vjt7lAgMAQIGNXctTRQWhIKxbFK4bvO1CAwBAAc0M1rO1C0JBWN8o3N/FBgCAAhpiWxeEgrAxUfhzFxwAAArkOlu6IBSEjQvC1YNXXHgAACiAV4M1bOmCUBA2Ngp3Cpa6AAEA0ERxH/287VwQCsLmROE5LkIAADTRebZyQSgImxeEnYMnXIgAAGiCCXEftZULQkHY3CjsE8xzQQIAoIHi/tnXNi4IBWExovBgFyUAABpomC1cEArCYkXhdS5MAAA0wPW2b0EoCIsXhKsFL7hAAQBQRy8G/2r7FoSCsJhRuFXQ6kIFAEAdLAoG2boFoSAsdhQe52IFAEAdHG/bFoSCsPhB2BLc5YIFAEANjY17pm1bEArCckThJ4NpLlwAANTAK3G/tGULQkFYrijcxu8TAgBQg98b3NZ2LQgFYTmj8JsuYgAArIThtmpBKAjLHYWjXcgAAFgBN9qmBaEgLH8QxvcTTnRBAwCgAybFPdI2LQgFYTWisF8w34UNAIB2iHvjprZoQSgIqxWFX3VxAwCgHQ6yPQtCQVjNKLzYBQ4AgOW41NYsCAVhdYNwlWCcCx0AAMsQ98RVbM2CUBBWOwrXXuv9l4u66AEA8FfTg3Vsy4JQEKYRhYOChS58AADke+EgW7IgFIRpReHBLn4AAATDbMeCUBCmGYWjXAABAJJ2ga1YEArCdIPwY8EDLoQAAEl6MO6DtmJBKAjTjsJPBlNdEAEAkjIt+JRtWBAKQhOjcPNgrgsjAEAS5sX9zxYsCAWh+fso3DNY4gIJAFBpcd/by/YrCAWhWVYUjnCRBACotJG2XkEoCM3yovAyF0oAgEq6wrYrCAWh+aggjE8e/Y0LJgBApdwffNy2KwgFoWlPFK4RTHbhBACohLjXrWnLFYSC0HQkCnsGb7uAAgCU2sygl+1WEApCsyJRuGPQ6kIKAFBKi+I+Z6sVhILQrEwUDg2WuqACAJTOgbZZQSgITS2icKQLKgBAqRxnixWEgtDUMgovcGEFACiFC22vglAQmloHYUtwiwssAECh3Rp0sr0KQkFo6hGFnYNxLrQAAIX022BVW6sgFISmnlEY31H4vAsuAEChTFzLuwYFoSA0DYrCDYPXXHgBAArh9aCbLVUQCkLTyCjcPJjtAgwA0FRz4l5mOxWEgtA0Iwq3Cxa4EAMANEXcwz5tKxWEgtA0Mwp3DRa5IAMANFTcv3azjQpCQWiKEIVDgiUuzAAADRH3rqG2UEEoCE2RovBIF2cAgIY4yvYpCAWhKWIUHu8CDQBQVyfYOgWhIDRFjsIzXKgBAOriLNumIBSEpgxReJkLNgBATV0etNg0BaEgNGUIwpb8ouXiDQCw8q4Sg4JQEJqyReHHgtEu4AAAKyXuUx+zXQpCQWhEIQCAGDSCUBCa0kXhLS7oAAAdcrsYFISC0FQlCjsHv3ZhBwBol7g3dbZFCkJBaEQhAIAYNIJQEJrKROEDLvQAAMv0UPAvtkZBKAiNnxQCAKT3k0ExKAgFoRGFAAC+JmoEoSA01Y9CTx8FADxNVAwKQkEoCBONQu8pBABS5j2DglAQCkJRKAoBADEoThCE6ijdKOwUXO7GAAAk4qqi/GRQFAlCQWiKEoUtwWVuEABAxcV/BG/x9UUEoSA0yw7DM9woAICKOqtIMSgIEYSmqFF4vBsGAFAxJ3jACYJQEJr2R+GRwRI3DwCg5OI+c5QnXiIIBaHpeBQOCRa5kQAAJRX3mKFF3rdEkSAUhKboUbhrsMANBQAombi/7Fb0XUsUCUJBaMoQhdsFs91YAICSmBNsX4Y9SxQJQkFoyhKFmwevucEAAAX3etxbyrJjiSJBKAhNmaJwg+B5NxoAoKAmBt3KtF+JIkEoCE3ZonCNYJwbDgBQML8N1izbbiWKBKEgNGWMws7BLW48AEBB3BqsWsa9ShQJQkFoyhqFLcH5bkAAQJNdGHQq604ligShIDRlD8ORwVI3IwCgCY4r+y4ligShIDRViMKhQaubEgDQIPGF8wdWYY8SRYJQEJqqROGOwVtuUABAnc2Me0dVdihRJAgFoalSFPYMJrlRAQB1MjnoVaX9SRQJQkFoqhaF8bUUv3HDAgBq7P4yvlZCECIITYpR+LHgMjcuAKBGrgg+XsW9SRQJQkFoqhyGI4IlbmIAwAqKe8TIKu9LokgQCkJT9SjcM5jrhgYAdNC8YK+q70qiSBAKQpNCFG4eTHVjAwDaaVrcH1LYk0SRIBSEJpUo/GTwgBscAPARHgw+lcqOJIoEoSA0KUVhfNjMKDc6AOBDXBD3hZT2I1EkCAWhSTEMDwoWuukBALm4FwxLcS8SRYJQEJpUo3BQ8IobIAAkb3rcC1LdiUSRIBSEJuUoXCsY50YIAMmKe8A6Ke9DokgQCkKTehSuElzshggAybk07gGp70KiSBAKQmPeD8OvBvPdHAGg8uL9/iDbjyBEEBrzwSjsF0x0owSAypoUbGrrEYQIQmM+LApXC0a7YQJA5dwY7/O2HUGIIDSmPWH4zaDVzRMASm9RMNx2IwgRhMZ0NAq3Caa5kQJAacVXTG1rqxGECEJjVjQKPxnc6YYKAKUzNt7HbTOCEEFozMpGYUvwbV8hBYDSfEX0+Hj/tsUIQgShMbUMw62CF9xoAaCwXgwG2VoEIYLQmHpFYXwK6c/dcAGgcK73FFFBiCA0plFheHAwz80XAJou3o+H2U4EIYLQmEZHYe/gCTdiAGiaCUFfW4kgRBAa06wo7BycEyx1UwaAhon33fPifdg2IggRhMYUIQw/552FANAQrwaft30IQgShMUWLwtU9cAYA6uq6YA1bhyBEEBpT5DDcP3jbTRsAamZmMMSWIQgRhMaUJQrXDe5yAweAlTY23ldtF4IQQWhMGcPw68F8N3MA6LB4//xG0GKjEIQIQmPKHIV9gofd2AGg3X7ndRKCEEFoTJWisCUY7qeFAPCRPxUc7qeCghBBaExVw7B7cJ8bPgD8kweCnrYFQYggNCaFnxYeHcxx8weA7nPz+6KfCgpCBKExSYVh1+BuiwAACYv3wQ1tBYIQQSgITcpheGgwy1IAQEJmB4fbAgQhglAQGvN+FK4VXGdBACABvwjWdvcXhAhCQWjMP4fhLsELlgUAKujFYFd3e0GIIBSExiw/Cj8RnB60Wh4AqIDW/L72CXd5QYggFITGtD8MN/FCewBKblzQz11dECIIBaExKxaF8RUVhwczLRUAlEh8WNqRXiUhCBGEgtCY2oThp4IrgqWWDAAKLN6nfhZ0cfcWhAhCQWhM7cNwYDDewgFAAT0WDHK3FoQIQkFoTP2/RhrfXfiG5QOAApgRHObroYIQQSgIjWlsGK4ejAoWW0YAaIK/BOfH+5G7siBEEApCY5oXhv2D+y0mADTQg/H+4y4sCBGEgtCY4oThvl5qD0ADXi6/n7uuIEQQCkJjihmFqwQj8sd9W1wAqJXZwbFBZ3dbQYggFITGFD8M1wzOCxZZYgBYCYvy31f/N3dXQYggFITGlC8MewW3WGgAWAFjgt7upoIQQSgIjSl/GH4meNxyA0A7/D7Y0d1TECIIBaEx1YrC+P7CIcEkyw4AyzAlOMD7BAUhglAQGlPtMPx4cHjwquUHgPx+cGS8P7hLCkIEoSA0Jp0w7ByMDN6yDAEkaWZ+H1jVXVEQIggFoTHphuFqwSnBHMsRQBLmBqfG67+7oBFFglAQGmP+GoZd8ldVLLQsAVTSwvwVEl3c9YwgRBAaYz4sDNfLw3C+5QmgMiF4Yby+u8sZQYggNMZ05CeGZwtDgNKK1++fCEEjCBGExhhhCJBWCJ7tq6FGECIIjTHCEEAIGiMIEYTGmJqG4Wn548otYADNNys4XQgaQYggNMY0Mgzj6yqO9YJ7gKa+UP7bXh9hBCGC0BjTzDBcJTg0mGg5A2iIScFhQWd3ISMIEYTGmKKEYUvwpeC/LWsAdTE+2Dteb911jCBEEBpjihyHOwa3B0stcAArJV5H7wgGu7sYQYggNMaULQx7BhcEcy11AB0yN3+ZfC93EyMIEYTGmLKH4b/mD6B5yZIHsFxTg5HB6u4eRhAiCI0xVQvDTsE+wcOWPoB/8Eiwb7xOulsYQYggNMakEIdbBlcH71oEgUQtyK+DA9wVjCBEEApCY1INwzWDEflj1C2IQCqvjYhfo1/TXcAIQgShIDTG/C0OPxfcGCyyMAIVE69rNwU7eW2EEYQIQkFojFl+GK4dnJg/XMEiCZTZtOAH8brm6m4EIYJQEBpjOhaG8SE0ewS3Bq0WS6Ak4vVqTLCnh8QYQYggFITGmNrE4afy3zV80rIJFNTT+XWqi6u2EYQIQkFojKlfHA4ILg5mWkCBJpuVX48GujobQYggFITGmMaG4arBAcHdwRKLKdAg8XozNhgar0OuxkYQIggFoTGm+XEYH0RzTPC4ZRWok8fzr4Su46prBCGCUBAaY4obh72Ck7zbEKiBycHJQW9XVyMIEYSC0BhTvjiMv294TvCqxRZop+n5dcPvBRpBiCAUhMaYioRhfIXF4OCSfNmz9AJ/7/X8+jDYqyKMIEQQCkJjTLXjsCXYPjg3eMkiDMmK5/+o/HrQ4upoBCGCUBAaY9IMxEHBj4IpFmSovHienxnPe1c/YwShIBSExhjzwTjsnz+QJj5NcKnlGUpvaX4+xwfDbOYqZ4wgRBAaY0x74zC+yuLw4JfBXIs1lMa8/Lw93CsijBGECEJjjKlFHHYOvhBc6PcOobC/D3hRfp52dtUyRhAiCI0xpp6B2C84LhgbLLCMQ8PF8+6e/Dzs76pkjCBEEBpjTLPicNXg88FZwQS/ewh1+13AeH79ONg5nneuPsYIQgShMcYUMRA/FRwYXBW8YpGHFfZqcHV+PnVxdTFGECIIjTGmjIHYO3+4xbV+/xCWa2p+nsTzpY+rhzGCEEFojDFVDMQNgoODK7z7EO8EbDsPDonnhauDMYIQQWiMMSkGYny9xQHB+cFjwXtCgQp6Lz++L8iPd6+DMEYQIggFoTHGLCMQ4ysutg2OCW4I/iQmKOlrIG7Ij+NtvQrCGEGIIBSExhiz4pG4VvD/gjOCe4MZgoMCmZEfl2fmx+nazlpjBCGCUBAaY0x9I3H9YK/g5OC2/IEc4oRGPPjltvy4i8dfV2ejMYIQQSgIjTGmGJG4Rv5OxOPypzX+IZgvYlgB8/Pj59r8eIrH1ZrOMmMEIYJQEBpjTLkisSXokf80Jy721wSPB3NFD/lx8Hh+XJyQHyfxeGlx9hgjCBGEgtAYY6odi92C3YLh+dMf7wwmBq1CqVJa88/1zvxzHp5/7t2cBcYIQgShIDTGGPPBUOyUx2L8muDRwTnBL/OvEL4psAr7YJc/5J/TufnnFj+/7vHzdFQbYwQhgtAYY0ytgnHVoHceHMOCk/IXjI8NngtmCbSampX/vd6T/z3Hv+9D87//PvHzcFQaYwQhgtAYY0yRonGV/Emog4IvBocF38t/ejU6uC94Kng1wd9nnJv/dz+d/z2Mzv9evpf/PX0x/3uLf3+rOJqMMYIQQWiMMabqARm/pvrJ/CePMYZ2CYYEXwu+E/wwGBVckj/58ubgjuCh4NE8rl4IpgVvBHM+4L12xtp7y/i/fSP///tC/r/zaP6/e0f+57g2/3ONyv+c8c97VP7n3yX/7+md//f5+qYxRhAiCAEAABCEAAAACEIAAAAEIQAAAIIQAAAAQQgAAIAgBAAAQBACAAAgCAEAABCEAAAACEIAAAAEIQAAAIIQAABAEAIAACAIAQAAEIQAAAAIQgAAAAQhAAAAghAAAABBCAAAgCAEAABAEAIAACAIAQAAEIQAAAAIQgAAAAQhAAAAghAAAABBCAAAgCAEAABAEAIAACAIAQAAEIQAAAAIQgAAAAQhAAAAghAAAID3/R8t0gek3DxObAAAAABJRU5ErkJggg==;" parent="1" vertex="1">
                    <mxGeometry x="302" y="560" width="80" height="80" as="geometry"/>
                </mxCell>
                <mxCell id="CThOfPx-exDyMWdyFiYV-12" style="edgeStyle=none;html=1;entryX=0.5;entryY=0;entryDx=0;entryDy=0;" parent="1" source="CThOfPx-exDyMWdyFiYV-1" target="CThOfPx-exDyMWdyFiYV-11" edge="1">
                    <mxGeometry relative="1" as="geometry"/>
                </mxCell>
                <mxCell id="CThOfPx-exDyMWdyFiYV-23" value="Run" style="edgeLabel;html=1;align=center;verticalAlign=middle;resizable=0;points=[];" parent="CThOfPx-exDyMWdyFiYV-12" vertex="1" connectable="0">
                    <mxGeometry x="0.0392" y="-3" relative="1" as="geometry">
                        <mxPoint as="offset"/>
                    </mxGeometry>
                </mxCell>
                <mxCell id="CThOfPx-exDyMWdyFiYV-1" value="GitHub Actions" style="shape=image;verticalLabelPosition=bottom;labelBackgroundColor=default;verticalAlign=top;aspect=fixed;imageAspect=0;image=data:image/svg+xml,PHN2ZyB4bWxucz0iaHR0cDovL3d3dy53My5vcmcvMjAwMC9zdmciIHZpZXdCb3g9IjAgMCAxMjggMTI4Ij48cGF0aCBkPSJNMjYuNjY2IDBDMTEuOTcgMCAwIDExLjk3IDAgMjYuNjY2YzAgMTIuODcgOS4xODEgMjMuNjUxIDIxLjMzNCAyNi4xM3YzNy44N2MwIDExLjc3IDkuNjggMjEuMzM0IDIxLjMzMiAyMS4zMzRoLjE5NWMxLjMwMiA5LjAyMyA5LjEgMTYgMTguNDczIDE2QzcxLjYxMiAxMjggODAgMTE5LjYxMiA4MCAxMDkuMzM0cy04LjM4OC0xOC42NjgtMTguNjY2LTE4LjY2OGMtOS4zNzIgMC0xNy4xNyA2Ljk3Ny0xOC40NzMgMTZoLS4xOTVjLTguNzM3IDAtMTYtNy4xNTItMTYtMTZWNjMuNzc5YTE4LjUxNCAxOC41MTQgMCAwIDAgMTMuMjQgNS41NTVoMi45NTVjMS4zMDMgOS4wMjMgOS4xIDE2IDE4LjQ3MyAxNiA5LjM3MiAwIDE3LjE2OS02Ljk3NyAxOC40Ny0xNmgxMS4wNTdjMS4zMDMgOS4wMjMgOS4xIDE2IDE4LjQ3MyAxNiAxMC4yNzggMCAxOC42NjYtOC4zOSAxOC42NjYtMTguNjY4QzEyOCA1Ni4zODggMTE5LjYxMiA0OCAxMDkuMzM0IDQ4Yy05LjM3MyAwLTE3LjE3MSA2Ljk3Ny0xOC40NzMgMTZINzkuODA1Yy0xLjMwMS05LjAyMy05LjA5OC0xNi0xOC40NzEtMTZzLTE3LjE3MSA2Ljk3Ny0xOC40NzMgMTZoLTIuOTU1Yy02LjQzMyAwLTExLjc5My00LjU4OS0xMi45ODgtMTAuNjcyIDE0LjU4LS4xMzYgMjYuNDE2LTEyLjA1IDI2LjQxNi0yNi42NjJDNTMuMzM0IDExLjk3IDQxLjM2MiAwIDI2LjY2NiAwem0wIDUuMzM0QTIxLjI5MiAyMS4yOTIgMCAwIDEgNDggMjYuNjY2IDIxLjI5NCAyMS4yOTQgMCAwIDEgMjYuNjY2IDQ4IDIxLjI5MiAyMS4yOTIgMCAwIDEgNS4zMzQgMjYuNjY2IDIxLjI5IDIxLjI5IDAgMCAxIDI2LjY2NiA1LjMzNHptLTUuMjE1IDcuNTQxQzE4LjY3IDEyLjg4OSAxNiAxNS4xMjMgMTYgMTguMTY2djE3LjA0M2MwIDQuMDQzIDQuNzA5IDYuNjYzIDguMTQ1IDQuNTMzbDEzLjYzNC04LjQ1NWMzLjI1Ny0yLjAyIDMuMjc0LTcuMDAyLjAzMi05LjA0NWwtMTMuNjM1LTguNTlhNS4wMjQgNS4wMjQgMCAwIDAtMi43MjUtLjc3N3ptLS4xMTcgNS4yOTEgMTMuNjM1IDguNTg4LTEzLjYzNSA4LjQ1NVYxOC4xNjZ6bTQwIDM1LjE2OGExMy4yOSAxMy4yOSAwIDAgMSAxMy4zMzIgMTMuMzMyQTEzLjI5MyAxMy4yOTMgMCAwIDEgNjEuMzM0IDgwIDEzLjI5NCAxMy4yOTQgMCAwIDEgNDggNjYuNjY2YTEzLjI5MyAxMy4yOTMgMCAwIDEgMTMuMzM0LTEzLjMzMnptNDggMGExMy4yOSAxMy4yOSAwIDAgMSAxMy4zMzIgMTMuMzMyQTEzLjI5MyAxMy4yOTMgMCAwIDEgMTA5LjMzNCA4MCAxMy4yOTQgMTMuMjk0IDAgMCAxIDk2IDY2LjY2NmExMy4yOTMgMTMuMjkzIDAgMCAxIDEzLjMzNC0xMy4zMzJ6bS00Mi41NjggNi45NTFhMi42NjcgMi42NjcgMCAwIDAtMS44ODcuNzhsLTYuMyA2LjI5NC0yLjA5My0yLjA4NGEyLjY2NyAyLjY2NyAwIDAgMC0zLjc3MS4wMDYgMi42NjcgMi42NjcgMCAwIDAgLjAwOCAzLjc3MmwzLjk3NCAzLjk2YTIuNjY3IDIuNjY3IDAgMCAwIDMuNzY2LS4wMDFsOC4xODUtOC4xNzRhMi42NjcgMi42NjcgMCAwIDAgLjAwMi0zLjc3MiAyLjY2NyAyLjY2NyAwIDAgMC0xLjg4NC0uNzh6bTQ4IDBhMi42NjcgMi42NjcgMCAwIDAtMS44ODcuNzhsLTYuMyA2LjI5NC0yLjA5My0yLjA4NGEyLjY2NyAyLjY2NyAwIDAgMC0zLjc3MS4wMDYgMi42NjcgMi42NjcgMCAwIDAgLjAwOCAzLjc3MmwzLjk3NCAzLjk2YTIuNjY3IDIuNjY3IDAgMCAwIDMuNzY2LS4wMDFsOC4xODUtOC4xNzRhMi42NjcgMi42NjcgMCAwIDAgLjAwMi0zLjc3MiAyLjY2NyAyLjY2NyAwIDAgMC0xLjg4NC0uNzh6TTYxLjMzNCA5NmExMy4yOTMgMTMuMjkzIDAgMCAxIDEzLjMzMiAxMy4zMzQgMTMuMjkgMTMuMjkgMCAwIDEtMTMuMzMyIDEzLjMzMkExMy4yOTMgMTMuMjkzIDAgMCAxIDQ4IDEwOS4zMzQgMTMuMjk0IDEzLjI5NCAwIDAgMSA2MS4zMzQgOTZ6TTU2IDEwNS4zMzRjLTIuMTkzIDAtNCAxLjgwNy00IDQgMCAyLjE5NSAxLjgwOCA0IDQgNHM0LTEuODA1IDQtNGMwLTIuMTkzLTEuODA3LTQtNC00em0xMC42NjYgMGMtMi4xOTMgMC00IDEuODA3LTQgNCAwIDIuMTk1IDEuODA4IDQgNCA0czQtMS44MDUgNC00YzAtMi4xOTMtMS44MDctNC00LTR6TTU2IDEwOGMuNzUgMCAxLjMzNC41ODUgMS4zMzQgMS4zMzQgMCAuNzUzLS41ODMgMS4zMzItMS4zMzQgMS4zMzItLjc1IDAtMS4zMzQtLjU4LTEuMzM0LTEuMzMyIDAtLjc1LjU4NS0xLjMzNCAxLjMzNC0xLjMzNHptMTAuNjY2IDBjLjc1IDAgMS4zMzQuNTg1IDEuMzM0IDEuMzM0IDAgLjc1My0uNTgzIDEuMzMyLTEuMzM0IDEuMzMyLS43NSAwLTEuMzMyLS41OC0xLjMzMi0xLjMzMiAwLS43NS41ODMtMS4zMzQgMS4zMzItMS4zMzR6IiBmaWxsPSIjMjA4OGZmIi8+PHBhdGggZD0iTTEwOS4zMzQgOTAuNjY2Yy05LjM4MyAwLTE3LjE4OCA2Ljk5My0xOC40NzcgMTYuMDMxYTIuNjY3IDIuNjY3IDAgMCAwLS4yNjUtLjAxMWwtMi43LjA5YTIuNjY3IDIuNjY3IDAgMCAwLTIuNTc4IDIuNzUxIDIuNjY3IDIuNjY3IDAgMCAwIDIuNzUyIDIuNTc4bDIuNy0uMDg3YTIuNjY3IDIuNjY3IDAgMCAwIC4wOTctLjAwNkM5Mi4xNyAxMjEuMDI5IDk5Ljk2NSAxMjggMTA5LjMzNCAxMjhjMTAuMjc4IDAgMTguNjY2LTguMzg4IDE4LjY2Ni0xOC42NjZzLTguMzg4LTE4LjY2OC0xOC42NjYtMTguNjY4em0wIDUuMzM0YTEzLjI5MyAxMy4yOTMgMCAwIDEgMTMuMzMyIDEzLjMzNCAxMy4yOSAxMy4yOSAwIDAgMS0xMy4zMzIgMTMuMzMyQTEzLjI5MyAxMy4yOTMgMCAwIDEgOTYgMTA5LjMzNCAxMy4yOTQgMTMuMjk0IDAgMCAxIDEwOS4zMzQgOTZ6IiBmaWxsPSIjNzliOGZmIi8+PC9zdmc+;" parent="1" vertex="1">
                    <mxGeometry x="302" y="219.99999999999997" width="80" height="80" as="geometry"/>
                </mxCell>
                <mxCell id="CThOfPx-exDyMWdyFiYV-13" style="edgeStyle=none;html=1;" parent="1" source="CThOfPx-exDyMWdyFiYV-5" edge="1">
                    <mxGeometry relative="1" as="geometry">
                        <mxPoint x="702" y="464" as="targetPoint"/>
                    </mxGeometry>
                </mxCell>
                <mxCell id="CThOfPx-exDyMWdyFiYV-14" value="Create" style="edgeLabel;html=1;align=center;verticalAlign=middle;resizable=0;points=[];" parent="CThOfPx-exDyMWdyFiYV-13" vertex="1" connectable="0">
                    <mxGeometry x="0.2518" y="2" relative="1" as="geometry">
                        <mxPoint as="offset"/>
                    </mxGeometry>
                </mxCell>
                <mxCell id="CThOfPx-exDyMWdyFiYV-19" style="edgeStyle=none;html=1;entryX=0;entryY=0.25;entryDx=0;entryDy=0;" parent="1" source="CThOfPx-exDyMWdyFiYV-5" target="CThOfPx-exDyMWdyFiYV-17" edge="1">
                    <mxGeometry relative="1" as="geometry"/>
                </mxCell>
                <mxCell id="CThOfPx-exDyMWdyFiYV-20" value="Create" style="edgeLabel;html=1;align=center;verticalAlign=middle;resizable=0;points=[];" parent="CThOfPx-exDyMWdyFiYV-19" vertex="1" connectable="0">
                    <mxGeometry x="-0.1607" relative="1" as="geometry">
                        <mxPoint x="-1" as="offset"/>
                    </mxGeometry>
                </mxCell>
                <mxCell id="CThOfPx-exDyMWdyFiYV-5" value="Terraform" style="shape=image;verticalLabelPosition=bottom;verticalAlign=top;imageAspect=0;aspect=fixed;image=data:image/png,iVBORw0KGgoAAAANSUhEUgAAAHAAAACACAYAAADTcu1SAAAAAXNSR0IArs4c6QAADitJREFUeAHtnX1UlFUex5/7PDOAoiWnRGbo5G6FL7XV4lqnrFZAT6booOxOLyuD7FZmdbT3jlu5S55t/SM37XjWNirFGWpLVmEGNLUEcteOWcZmbyrlZh1mSDCtFAVmnrvfB7nwMIHAvD3PzNw5B+597jNz7+9+P3Nfnvs2gi3PveUPlubxAn9FpQIipXRWB+n4uGCu+28Lrd+dH5W5iGOjRSXvgGgUZPrw6bYzDTaL++7iYtoZHse6RE3We4GiAh2Nv5Iv6t37bPM8U6MmF3FsaC+A3TpQ4ZfUJ9ehNG68M989tjuce3SnQN8Au8xEabS2e+mBAot7uc3WlKw767lBwjkBKvpQQUjC/2XC976DADkf7SXhuulHAVJgaQSjIb32GAziktLNpveH9Cn+5rAoMGAJ7CPV67xe+h5KY+nC/GZTH/d5UAQVCAQgzFOqUbqg1ddxqDDPvXTxYpoYQZt5UioFAgTYFQOlI2RKVxw/4vkMIOep4uXeCCkQSBvYr2koljUSkR4sdaZ93O+b+I2QKhBcCfQzBb2hHK8g1xfkNf69cN4PF/jd5pdhUCCkADvto1TCs8d9su/HBgyUL8GwnCEMdvMouxQIPcAeaVPwzPj8l/We/QA5oyeY+0KpQDgBdtoJiBPxt81maawq+s3RjFAaz+MSBh6JCZVIaB9ne70dnxTmNT67eP6x80IVb7zHE/YS2EtgKiTIVHj0xMm2Bjx23MWnrXqpE9BFZAF2mYgqNRXPjy99We/+oCjPfVNAlvMPdSqgCUCmPaVCppfSXba8xtcLre6LWTh3B6+ALrr4AHmb0C6kwuycwZvO36kooGkJVCNAJ4dPU6kFGaRfNwD97cVqgMlYLWf2D+fXZxVAP4Lk5FTN0S1AFMcbOoTO2Y4nioooJpX5iymQk1M9JTu7ai+anjW6BagYiyUdyeitPuM77vncNs+dzzIQr+7MmVsvArgyWZZ3Q4PJig666MQMBATVxc8En7CpIM9dJ4jSg2UVYz4a6DOxdN9qfXdYS8t3j54541sKLYar86brEqg2tNNPaZYg+/ZhbPWFhXe4L/zJ/RgMQHVpbWk5doBSebk/PCW70QVQsRizHcjIotOttKHQ4n5g4UIsSo7B1/TpWzOzsqp2obrciPz2+4wcfQC7YKEBHyULdPXpJs/+wrmembHC8Oabt6einSvx+bwf4Ns64ChVVLSB54KDjs4EKtOtaB+3JFDjI+tcow+e6/16vWe1fprQ3Py/xR0d7X9CiRv0YH/UlsCfgKA0N1o36WRnV+c2Nx/+RBDklUOBp2gQOwCRGWQ+qjbpTJ9ePRHV5XZ0UKphfUBzpTEFkJVKVKu63qSTm1udglGU1Vhfux9fupuZ3YG4MQmwWwidbdKxWqmEx4J7W1vlBlmmD6DUBd0HiW2AXST1sEknJ2drTnNzdT0eC9aiBx2yFXtxAVDhiNkOTTbpoJ27BM9zm2XZuxNWXNldO4TIEzcAmV4AmQ4hywrnuncX5XuuYeGhdq3W2hEAt8Lno58hvbCtWo87gAwUqrHrw7FJB50SkpVVvaC5+eQhgFPGLsO6byRuAZ4FGdpNOtOmVV2PZ7r38DxXCngR2bkV5wC7ymOQm3TwSJCuTPP4fAKmeWjYqmVWe6hdkQjkXqxmaFEHxq+fXoL5x81YhLyzKK9pwA5HUVFtEkrcMlTHh1BVzge8iC8LER0u8z8M4rAMQSTPA6Q3fuH15BwdnQE36SjTPEeOnOx3mqcntvD6OqvQ0sqUE2WV5geJJFxFCNke3iSjJHbVJp3f57snqa1G79LVNc0zVh2uhb9XG+ioMH/ucJpvESVpDoxp0MIgHaaZ0iELvebjCBGu1oudvQAyo+wVadXD08xXCER8DNXqDyycu/pToE+AipklJaSjzGlaSSQxAx2dV1C1yvozn1vUL0AmjaMi7Sg6OncRapgsEPJvFs5dfSgwIEBmpt2VWl/mNP9aJNLtKJFfs3DuaqvAoAEyM+3OtDcuTDRNwFxwMUC2snDuaqPAkAEqZq4qJ6fLXKanDSRxAnpkr2tjOk9VUSAggEy69c4LvnE40++QDMKN6OTsY+HcjZwCQQFkZm7YnL770kzTtaIg3YnHjm9ZOHfDr0BIACpmFhcT2e5KW5cyMnEcNoo9i7/28JvPUwgZQCblmlcv+KHMmf64kGC8Au1jFQvnbngUCDlAZmZZeeoXaB8tkkhm4PkRs9L8FQ4FwgaQGbuh0rzjskzT1aIoLEHYcRbO3dAoEHaAiploH732yvQ1ojQyA23jWpRIX2jM57FEBCCT2V5x3jG0j/cbBDFTOdmQhXM3cAUiCpCZqRxH6XClTxMJwa5bcpiFc3foCmgCkJlpd5orUsaaLicieYII9EcWzt3BKxD00u7BJ9X3O9esIW24s4IfZNC3PgOFaloC1caVlpIz6mvuH5wCugHoby7Wdx3AbMcp/3B+3aMAVsN9qFuAWJuz3SgYx6GTU4Y/LBTjL6YAJg4OiyLJr6ubk69bgIqx2C7tLnOZbfihkSkwei/LQBy7J6HDE0lJ0uU1NXMqFB0078QMBkbp5rQ9WDh73YL8pkLsq1uBrbgRWbY+GNsi8x5CMa7sSEgwLt2+/RaPOk3dAlQ2ieDVXXV2+TfcZz266cd275OA+BBuhnXjiFooDf17MAz5AEpcnzWQbqvQwjzPPTjQZwUOvBupFm9teepJtI9/NBoNl2NIrrMaUd+PFT++sI2SJNpqa+dM6Q+eklfdAsRQWyJK4VLlwDvbXE+RUiLVcNZtGnMYi6zyiSRNA8iP1fei20/OiKL4jNGYMH7nztll6lqor3zpFiAzFtuj06gsr8dhPnsL8r6dwsKZi2WPNZYEU6ZIxPvRThxj4dHpkn8lJRkm1tTMfmrHjhmDeoTSPUAGAiVwskC9u1Gtlt2Vf+wiFq64t5YTn91pWjsiOTmDEHENHjuiapMOStlH+PJl4bHAum3bzK/UeRvIHzUAWUYAcn6bt+0gSuSyh6x0GAtX3BdeG3Xc4TQtMRJyNarVHep7+vSTZti1aOrU2ZNqay3vBGJj1AFUMolqdTh2By1vafMcsFk8Vv+Mr3eaPkP7OIMQyYKG8wv/+9pfkw7UFKtGjRoxrq7O8qKynihQm6ISIMssQF5MBXkjzknbVWg5msnCmetwplVdmmi+QhTEx1Gt6mSTDnmTEMOVtbWzH66szD7BbA3UjWqA3Zmm9CZKvB+gfSyxzWtK7Q6Hp7ictNtdpmeTkqVxRBTWob0J+NuujneofrRxB5F2Ltq5WbW1Mw8O9fP9vT82ACJ3aBtF/N2Nn09vwGPHI/7niL78zzHfOirT78Se8mtRGpUjiyPyArTvAe/hjAwzSt2craFONGYA9ghDz8Njx8rWJvenCyye3J7wsz4sstqH8dUbiSDdAWG/8b8fqmvELeOvBOOWGeigrCopmdwRqrjV8cQgwO7sZfgEuRrV6jYcmD6xO7TL43ClvT5sDJmAYaqnsdDqtP/9YK5R6t4xGKRfAdw9b745S+lphu0VywA7RUO1OoP6hP0Fc92r7/3diRS1kiUl5laslisWE4iySecN9b1A/AB3BKMot6KqzHrrrdz/BhLHUD8T8wDPCoJTAXE64MlTpxrwgyKLNuLUQLVQ9nLz11iEfLsoERxxTD5U3xuMH+BOYX5u2dixIyZgFKV8MJ8J1XviBOBZuZRTAvHo8YKr3VNfaPFk+4torzD/57JJpmuwWu5uQDnqf/+n18o0D3kVpXc8Bpz/UlqaHfFlIXEFsBsApVfKglyD0rjJZm36eXc4PJ2bdJzml0eNSMxAj3Vl/5t0yPuSJNyA6rIA8BrVcUTSr9v5wEiIgNKYT9p8uQD53MhEw1+VqSqWrrJJB/7H8LOxJYLg7VXlop27/+23Z21B6euer2Sfi7SLkSZ9vpTfhFB+ViBi1hGCmW6y1FGZ5tADmMHmOz6r0L7UUZZpUHkDBsn3FOU3XdfXW/QYxgH6UcFjx7Ver/xugcXtKLS2pPvd1t0lB9gnks5zRAtoW/tBDAQ8qedV4xxgnwDPBqKTk4wS+RfvCc8t53ibprc4QE3lDz5xDjB4DTWNgQPUVP7gE+cAg9dQ0xg4QE3lDz5xDjB4DTWNgQPUVP7gE+cAg9dQ0xg4QE3lDz5xDjB4DTWNgQPUVP7gE+cAg9dQ0xg4QE3lDz5xDjB4DTWNgQPUVP7gE+cAg9dQ0xg4QE3lDz5xDjB4DTWNgQPUVP7gE9ctQGNisoMfzzwwYN0CfKX8/O/48cxRDJCZzo9nZkr07eq2BPqbqz6eGUeIdO9h8H9fvF1HDUAFjHI8s6PSvGK4ZByH/Qt27GXQfHOJ1l+YqALIxCrZPNqDA+8WYFOlsodhDwuPRzcqATJQ9krTXoCcApA2bLPSbI8es0cLN6oBKoIpW8HsleYy4XxpPPzPAGTEd8lqAY6lGfUAWUYcjrRTKI1PSaI4ESA3sfBYd2MGIANVWmn6CiB/axDFbJTGj1h4rLoxB5CBAsi6SyeZJ+HAgkWoaFtYeKy5MQtQAdV1YMGLBnFYBn6DYjWq1rCclqTllyKmATJhSytTTjhc5ofwY81XAeQ2Fh4LblwAZKBKN5kPAORMSRBn42yXQyw8mt24AshAbXCZtgwbY/6FKJBH8BzyPQuPRjcuASqgSkpIh91lfs6YQHDONnkJf5qcIxrslyZuATLh1pebmvHYsZBQw2SUxl0sPFrcuAfIQNldqfU4Z3sqBgJuA8gjLFzvLgfoR2hDpWnj6AQTRnPEP6PH2up3W3eXHGAfSFaVk9P4+YLliYZEZXz1NZHgnEP+il4F/M8X1VNO/g8k+slcMVd8QwAAAABJRU5ErkJggg==" parent="1" vertex="1">
                    <mxGeometry x="302" y="418.57" width="80" height="91.43" as="geometry"/>
                </mxCell>
                <mxCell id="14U-jARELaDvpxEJPmEb-1" value="ap-northeast-1(Tokyo)" style="points=[[0,0],[0.25,0],[0.5,0],[0.75,0],[1,0],[1,0.25],[1,0.5],[1,0.75],[1,1],[0.75,1],[0.5,1],[0.25,1],[0,1],[0,0.75],[0,0.5],[0,0.25]];outlineConnect=0;gradientColor=none;html=1;whiteSpace=wrap;fontSize=12;fontStyle=0;container=1;pointerEvents=0;collapsible=0;recursiveResize=0;shape=mxgraph.aws4.group;grIcon=mxgraph.aws4.group_region;strokeColor=#00A4A6;fillColor=none;verticalAlign=top;align=left;spacingLeft=30;fontColor=#147EBA;dashed=1;" parent="1" vertex="1">
                    <mxGeometry x="582" y="190" width="780" height="710" as="geometry"/>
                </mxCell>
                <mxCell id="14U-jARELaDvpxEJPmEb-4" value="AWS Cloud&lt;div&gt;&lt;br&gt;&lt;/div&gt;" style="points=[[0,0],[0.25,0],[0.5,0],[0.75,0],[1,0],[1,0.25],[1,0.5],[1,0.75],[1,1],[0.75,1],[0.5,1],[0.25,1],[0,1],[0,0.75],[0,0.5],[0,0.25]];outlineConnect=0;gradientColor=none;html=1;whiteSpace=wrap;fontSize=12;fontStyle=0;container=1;pointerEvents=0;collapsible=0;recursiveResize=0;shape=mxgraph.aws4.group;grIcon=mxgraph.aws4.group_aws_cloud;strokeColor=#232F3E;fillColor=none;verticalAlign=top;align=left;spacingLeft=30;fontColor=#232F3E;dashed=0;" parent="14U-jARELaDvpxEJPmEb-1" vertex="1">
                    <mxGeometry x="-60" y="-30" width="880" height="760" as="geometry"/>
                </mxCell>
                <mxCell id="CThOfPx-exDyMWdyFiYV-17" value="" style="rounded=1;whiteSpace=wrap;html=1;" parent="14U-jARELaDvpxEJPmEb-4" vertex="1">
                    <mxGeometry x="178" y="596" width="382" height="124" as="geometry"/>
                </mxCell>
                <mxCell id="K-y_hoBacwOpLhWbvUWJ-6" value="" style="edgeStyle=none;html=1;" parent="14U-jARELaDvpxEJPmEb-4" source="14U-jARELaDvpxEJPmEb-6" target="K-y_hoBacwOpLhWbvUWJ-1" edge="1">
                    <mxGeometry relative="1" as="geometry"/>
                </mxCell>
                <mxCell id="14U-jARELaDvpxEJPmEb-6" value="WAF" style="sketch=0;points=[[0,0,0],[0.25,0,0],[0.5,0,0],[0.75,0,0],[1,0,0],[0,1,0],[0.25,1,0],[0.5,1,0],[0.75,1,0],[1,1,0],[0,0.25,0],[0,0.5,0],[0,0.75,0],[1,0.25,0],[1,0.5,0],[1,0.75,0]];outlineConnect=0;fontColor=#232F3E;fillColor=#DD344C;strokeColor=#ffffff;dashed=0;verticalLabelPosition=bottom;verticalAlign=top;align=center;html=1;fontSize=12;fontStyle=0;aspect=fixed;shape=mxgraph.aws4.resourceIcon;resIcon=mxgraph.aws4.waf;" parent="14U-jARELaDvpxEJPmEb-4" vertex="1">
                    <mxGeometry x="461" y="610" width="78" height="78" as="geometry"/>
                </mxCell>
                <mxCell id="K-y_hoBacwOpLhWbvUWJ-7" value="" style="edgeStyle=none;html=1;" parent="14U-jARELaDvpxEJPmEb-4" source="K-y_hoBacwOpLhWbvUWJ-1" target="K-y_hoBacwOpLhWbvUWJ-3" edge="1">
                    <mxGeometry relative="1" as="geometry"/>
                </mxCell>
                <mxCell id="K-y_hoBacwOpLhWbvUWJ-1" value="Logs" style="sketch=0;outlineConnect=0;fontColor=#232F3E;gradientColor=none;fillColor=#E7157B;strokeColor=none;dashed=0;verticalLabelPosition=bottom;verticalAlign=top;align=center;html=1;fontSize=12;fontStyle=0;aspect=fixed;pointerEvents=1;shape=mxgraph.aws4.cloudwatch_logs;" parent="14U-jARELaDvpxEJPmEb-4" vertex="1">
                    <mxGeometry x="320" y="612" width="104.9" height="78" as="geometry"/>
                </mxCell>
                <mxCell id="K-y_hoBacwOpLhWbvUWJ-2" value="S3" style="sketch=0;points=[[0,0,0],[0.25,0,0],[0.5,0,0],[0.75,0,0],[1,0,0],[0,1,0],[0.25,1,0],[0.5,1,0],[0.75,1,0],[1,1,0],[0,0.25,0],[0,0.5,0],[0,0.75,0],[1,0.25,0],[1,0.5,0],[1,0.75,0]];outlineConnect=0;fontColor=#232F3E;fillColor=#7AA116;strokeColor=#ffffff;dashed=0;verticalLabelPosition=bottom;verticalAlign=top;align=center;html=1;fontSize=12;fontStyle=0;aspect=fixed;shape=mxgraph.aws4.resourceIcon;resIcon=mxgraph.aws4.s3;" parent="14U-jARELaDvpxEJPmEb-4" vertex="1">
                    <mxGeometry x="80" y="80" width="78" height="78" as="geometry"/>
                </mxCell>
                <mxCell id="K-y_hoBacwOpLhWbvUWJ-3" value="SNS" style="sketch=0;points=[[0,0,0],[0.25,0,0],[0.5,0,0],[0.75,0,0],[1,0,0],[0,1,0],[0.25,1,0],[0.5,1,0],[0.75,1,0],[1,1,0],[0,0.25,0],[0,0.5,0],[0,0.75,0],[1,0.25,0],[1,0.5,0],[1,0.75,0]];outlineConnect=0;fontColor=#232F3E;fillColor=#E7157B;strokeColor=#ffffff;dashed=0;verticalLabelPosition=bottom;verticalAlign=top;align=center;html=1;fontSize=12;fontStyle=0;aspect=fixed;shape=mxgraph.aws4.resourceIcon;resIcon=mxgraph.aws4.sns;" parent="14U-jARELaDvpxEJPmEb-4" vertex="1">
                    <mxGeometry x="200" y="611" width="80" height="80" as="geometry"/>
                </mxCell>
                <mxCell id="14U-jARELaDvpxEJPmEb-12" value="myapp" style="points=[[0,0,0],[0.25,0,0],[0.5,0,0],[0.75,0,0],[1,0,0],[0,1,0],[0.25,1,0],[0.5,1,0],[0.75,1,0],[1,1,0],[0,0.25,0],[0,0.5,0],[0,0.75,0],[1,0.25,0],[1,0.5,0],[1,0.75,0]];outlineConnect=0;fontColor=#232F3E;fillColor=#ED7100;strokeColor=#ffffff;dashed=0;verticalLabelPosition=bottom;verticalAlign=top;align=center;html=1;fontSize=12;fontStyle=0;aspect=fixed;shape=mxgraph.aws4.resourceIcon;resIcon=mxgraph.aws4.ec2;" parent="14U-jARELaDvpxEJPmEb-4" vertex="1">
                    <mxGeometry x="302" y="240" width="78" height="78" as="geometry"/>
                </mxCell>
            </root>
        </mxGraphModel>
    </diagram>
</mxfile>